<svg width="255" height="350" viewBox="0 0 255 350" fill="none" xmlns="http://www.w3.org/2000/svg">
<path opacity="0.5" fill-rule="evenodd" clip-rule="evenodd" d="M238.274 282.524L237.492 283.878C229.268 297.841 218.624 310.077 205.945 320.483C192.666 331.363 177.8 339.357 161.803 344.237C125.541 355.47 86.2282 350.006 48.0113 328.27C-31.9134 282.944 -125.642 307.468 -201.231 327.245L-201.915 327.424C-235.952 336.495 -268.18 344.97 -293.969 345.673C-322.615 346.532 -341.111 337.987 -352.216 318.609C-363.768 298.317 -368.522 273.579 -366.184 244.729C-364.473 221.754 -358.239 196.302 -347.768 168.865C-330.874 124.648 -308.049 89.8987 -305.463 85.9619C-305.32 85.7444 -305.239 85.6209 -305.224 85.5951C-287.928 63.2473 -268.79 44.7536 -248.479 30.7117C-229.49 17.5484 -208.881 7.78157 -187.253 1.88583L-187.253 1.88571C-185.902 1.51728 -184.55 1.14888 -183.269 0.903501C-226.413 11.9385 -267.859 38.0691 -304.858 85.8065C-304.878 85.8417 -304.976 85.9925 -305.147 86.2545L-305.147 86.2547C-307.963 90.5782 -330.474 125.143 -347.331 168.954C-363.849 211.938 -377.956 272.728 -351.829 318.504C-340.898 337.617 -322.472 346.286 -293.949 345.356C-268.089 344.53 -235.932 336.179 -201.966 327.231C-163.944 317.177 -120.851 305.949 -78.0875 302.9C-31.4701 299.631 8.05731 306.87 42.521 324.948C-34.2089 281.983 -124.1 305.589 -196.494 324.601L-196.742 324.666C-197.724 324.921 -198.704 325.176 -199.683 325.431L-199.732 325.443C-231.361 333.67 -261.184 341.427 -285.27 342.161C-312.828 342.827 -330.644 334.511 -341.3 316.049C-352.333 296.548 -356.955 272.707 -354.697 245.124C-352.975 222.976 -346.995 198.527 -336.97 172.145C-320.566 129.486 -298.514 95.7612 -296.327 92.4159C-296.221 92.2539 -296.162 92.1631 -296.152 92.1461C-279.547 70.7126 -261.15 52.9397 -241.632 39.4249C-223.435 26.7888 -203.548 17.4261 -182.815 11.6705C-175.477 9.6702 -168.037 8.05692 -160.373 6.90126C-208.48 14.4143 -254.928 39.6266 -295.786 92.3574C-295.806 92.393 -295.904 92.5426 -296.072 92.8014L-296.072 92.8018L-296.072 92.802C-298.814 97.0192 -320.397 130.213 -336.533 172.234C-352.372 213.477 -365.952 271.944 -340.843 315.82C-330.308 334.212 -312.615 342.458 -285.301 341.65C-260.457 340.894 -229.581 332.788 -196.966 324.208C-160.49 314.576 -119.064 303.698 -77.8959 300.877C-35.1077 297.946 1.5059 304.092 33.5136 319.735C-39.1984 281.682 -123.588 303.88 -191.692 321.837C-223.148 330.101 -252.673 337.838 -276.571 338.648C-303.062 339.438 -320.145 331.545 -330.211 313.752C-340.918 295.096 -345.285 272.223 -343.159 245.712C-341.497 224.515 -335.699 200.945 -326.07 175.812C-310.326 134.842 -289.274 102.603 -287.151 99.3508C-287.046 99.1909 -286.988 99.101 -286.978 99.0837C-281.391 91.9012 -275.621 85.1667 -269.675 78.886C-275.477 85.0683 -281.132 91.701 -286.643 98.7849C-286.676 98.8429 -286.806 99.0479 -287.026 99.3932L-287.027 99.3939L-287.027 99.3944C-288.206 101.247 -291.95 107.133 -297.101 116.053C-305.132 129.963 -316.41 151.189 -325.735 175.513C-340.894 215.015 -353.876 271.038 -329.856 313.136C-319.719 330.806 -302.757 338.629 -276.582 337.821C-253.504 337.156 -225.013 329.761 -194.727 321.9C-193.745 321.644 -192.76 321.389 -191.774 321.133L-189.665 320.583C-155.137 311.576 -116.363 301.462 -77.6332 298.731C-36.0653 295.847 -0.789608 301.973 30.219 317.273C-39.6579 279.95 -121.069 301.332 -186.622 318.692C-187.608 318.947 -188.592 319.202 -189.575 319.456L-189.575 319.456C-218.517 326.952 -245.841 334.029 -267.903 334.625C-293.255 335.417 -309.535 327.823 -319.326 310.681C-329.514 292.817 -333.749 270.841 -331.754 245.404C-330.152 225.156 -324.73 202.518 -315.354 178.388C-300.224 138.93 -279.742 107.851 -277.986 105.185L-277.985 105.184L-277.984 105.182C-277.911 105.072 -277.871 105.011 -277.866 105.001C-248.25 66.9522 -213.208 42.0485 -173.865 31.1164C-140.001 21.7812 -101.84 22.4767 -60.3983 33.2728C15.4594 52.9422 88.8169 102.024 142.454 137.916C144.172 139.055 145.875 140.185 147.563 141.305C159.056 148.933 169.808 156.069 179.199 161.921C199.64 174.707 212.238 193.47 215.416 216.149C218.175 236.452 213.352 258.616 201.697 278.803L200.986 280.034C185.908 305.304 161.647 324.779 134.166 333.204C104.916 342.219 73.4915 339.051 42.617 323.905C117.988 364.249 183.5 330.354 212.819 280.958L213.53 279.727C230.12 250.992 235.4 213.402 216.81 184.019C222.78 193.282 226.633 203.738 228.193 215.155C231.247 235.793 226.049 258.888 213.825 280.061L213.043 281.415C197.255 307.916 171.866 328.217 143.348 337.028C112.558 346.566 79.4472 342.97 47.0182 326.953C125.794 369.419 194.243 334.008 224.876 282.339L225.587 281.108C248.542 241.347 250.719 185.158 201.364 154.53C190.882 148.039 178.836 139.991 166.015 131.426C164.469 130.393 162.912 129.352 161.345 128.306C105.572 90.9641 32.143 41.982 -44.286 18.4195C32.3695 41.8952 105.835 90.9212 160.533 127.423L161.487 128.06C163.055 129.107 164.613 130.147 166.159 131.181C178.98 139.746 191.025 147.793 201.507 154.284C223.9 168.198 237.536 188.544 240.837 213.264C244.126 235.187 238.867 259.232 226.146 281.266L225.364 282.62C208.936 310.229 182.42 331.356 152.672 340.606C119.413 350.861 83.4469 346.54 48.3216 328.119C131.834 375.41 204.77 338.302 237.126 283.667L237.908 282.313C261.788 240.952 263.983 182.476 212.625 150.527C200.391 142.971 186.071 133.391 170.968 123.194L170.391 122.808C113.971 85.1529 40.4866 36.1084 -36.3933 10.8595C40.9265 36.0825 114.727 85.229 170.208 122.176L171.181 122.825C171.985 123.358 172.786 123.89 173.584 124.42C174.854 125.264 176.117 126.103 177.373 126.938C190.242 135.49 202.343 143.532 212.838 150.158C236.086 164.565 250.17 185.827 253.848 211.584C257.077 234.457 251.493 259.628 238.274 282.524ZM-60.98 13.7022C-55.4032 15.1311 -49.8367 16.7082 -44.286 18.4195C-49.3237 16.8767 -54.3751 15.4443 -59.4359 14.133C-59.9494 13.9872 -60.4643 13.8436 -60.98 13.7022ZM-71.2704 11.2394C-67.8373 12.0022 -64.4067 12.8242 -60.98 13.7022C-64.3953 12.766 -67.852 11.9297 -71.2704 11.2394ZM190.368 158.357C202.046 165.627 210.712 174.381 216.81 184.019C210.389 174.054 201.519 165.469 190.419 158.551C179.161 151.559 165.991 142.806 152.037 133.437C96.0301 96.0129 19.3267 44.8347 -59.8862 24.2129C-103.199 12.9934 -142.935 12.2087 -178.345 21.965C-212.103 31.2525 -242.708 50.4035 -269.675 78.886C-214.338 19.9291 -145.543 1.92817 -59.8152 24.0898C19.2757 44.6412 95.9791 95.8193 151.986 133.243C165.94 142.612 179.11 151.365 190.368 158.357ZM-314.866 178.67C-305.988 155.401 -295.207 135.037 -287.531 121.743C-283.779 115.243 -280.738 110.443 -279.061 107.797C-278.133 106.333 -277.623 105.528 -277.642 105.459C-221.986 33.8618 -151.049 10.479 -60.6316 33.9587C15.033 53.6807 88.4616 102.64 142.099 138.531C143.396 139.392 144.686 140.249 145.97 141.102L145.971 141.103C157.848 148.991 169.125 156.48 178.844 162.536C224.12 190.646 222.174 242.208 201.137 278.645L200.498 279.753C172.8 326.362 111.704 358.456 40.9711 322.605C69.2793 335.579 98.0568 338.044 124.893 329.82C151.094 321.64 174.471 303.132 188.787 278.9L189.497 277.669C200.655 258.343 205.296 237.059 202.457 218.022C199.534 196.311 187.577 178.411 167.919 166.24C159.002 160.665 148.831 153.872 137.936 146.596L135.698 145.101L134.31 144.174L132.883 143.222L132.357 142.871C81.1856 108.736 11.2133 62.0581 -60.9704 43.2824C-65.6959 42.0653 -70.3785 40.9833 -75.016 40.0367C-146.239 25.1272 -204.339 42.2054 -251.632 91.9032C-257.555 98.0633 -263.285 104.719 -268.813 111.869C-268.824 111.887 -268.884 111.978 -268.99 112.14C-271.041 115.272 -290.369 144.784 -304.647 182.108C-313.576 205.183 -318.796 226.624 -320.287 246.116C-322.272 270.409 -318.222 291.295 -308.43 308.437C-299.087 324.663 -283.488 332.028 -259.275 331.236C-237.769 330.576 -211.212 323.623 -182.986 316.233L-181.572 315.863C-120.37 299.677 -44.8861 279.789 20.7943 312.127C-7.62424 299.18 -39.9521 294.105 -77.4415 296.708C-115.245 299.338 -153.195 309.268 -186.775 318.111L-188.154 318.473C-217.741 326.234 -245.472 333.508 -267.934 334.115C-293.093 334.854 -309.251 327.33 -318.869 310.452C-341.871 270.255 -329.416 216.554 -314.866 178.67ZM-268.478 111.57C-263.021 104.527 -257.407 97.972 -251.632 91.9032C-227.284 66.582 -199.669 49.6432 -169.324 41.2879C-140.869 33.4397 -109.163 33.0669 -75.016 40.0367C-70.4924 40.9836 -65.9157 42.0596 -61.2855 43.2645C10.7764 61.97 80.7482 108.647 131.919 142.783L132.445 143.134C145.179 151.798 157.322 159.794 167.603 166.222C210.876 193.011 208.949 242.286 188.836 277.123L188.197 278.231C161.897 322.694 103.622 353.297 36.1816 319.334C63.0727 331.572 90.421 333.988 115.833 326.067C140.804 318.326 163.053 300.644 176.73 277.519L177.369 276.411C188.03 257.947 192.346 237.789 189.923 219.157C187.063 198.466 175.624 181.358 156.942 169.751C147.027 163.534 135.616 155.961 123.422 147.772L123.417 147.769L123.417 147.769C74.5698 115.136 7.64223 70.4232 -61.4315 52.536C-99.2738 42.8333 -134.019 42.1401 -164.794 50.6331C-200.783 60.5473 -232.706 83.1486 -259.65 117.98C-259.661 117.999 -259.72 118.089 -259.824 118.249C-261.808 121.282 -280.139 149.311 -293.758 184.948C-302.17 206.845 -307.207 227.407 -308.637 245.948C-310.42 269.046 -306.625 288.963 -297.352 305.313C-288.477 320.942 -273.539 327.761 -250.414 327.161C-229.918 326.57 -204.701 319.981 -177.82 312.958L-176.43 312.594L-176.268 312.552C-117.959 297.254 -46.0681 278.392 16.4607 309.122C-10.6318 296.849 -41.5269 292.074 -77.3005 294.491C-113.176 296.95 -149.248 306.433 -181.146 314.819L-181.704 314.965C-210.335 322.563 -237.471 329.545 -259.215 330.286C-283.235 331.026 -298.661 323.925 -307.882 307.768C-329.795 269.348 -317.938 218.092 -304.068 181.95C-295.514 159.807 -285.23 140.304 -277.91 127.625C-275.265 123.044 -273.006 119.323 -271.362 116.616C-269.561 113.65 -268.499 111.901 -268.478 111.57ZM-268.341 133.315C-275.377 145.501 -285.092 164.019 -293.27 185.23C-306.532 219.755 -317.791 268.566 -296.844 305.278C-288.142 320.643 -273.326 327.391 -250.516 326.774C-229.789 326.103 -203.933 319.366 -176.654 312.137L-176.07 311.984C-145.721 304.02 -111.206 294.963 -77.0579 292.662C-39.5886 290.095 -7.96158 295.884 19.7287 310.3C19.7117 310.29 19.6948 310.28 19.6778 310.271C-41.5016 275.605 -113.418 294.484 -171.187 309.713L-172.586 310.078L-172.587 310.078L-172.587 310.078C-198.116 316.734 -222.167 323.004 -241.644 323.526C-263.631 324.126 -277.765 317.607 -286.315 302.823C-306.416 267.747 -295.613 221.135 -282.889 188.105C-269.893 154.002 -252.148 127.147 -250.507 124.664L-250.506 124.663C-250.432 124.551 -250.391 124.489 -250.385 124.478C-224.751 91.3525 -194.413 69.8056 -160.233 60.4882C-130.881 52.4869 -97.8333 53.0205 -61.9328 62.4228C3.71697 79.4813 67.3721 121.977 113.85 153.078C115.597 154.234 117.327 155.381 119.038 156.515C128.743 162.946 137.822 168.962 145.733 173.948C163.561 185.062 174.358 201.307 177.157 220.977C179.467 238.396 175.333 257.674 165.241 275.154L164.601 276.262C151.565 298.278 130.443 315.134 106.702 322.436C80.4423 330.576 52.0802 327.211 24.3738 312.819C24.4186 312.845 24.4635 312.87 24.5083 312.895C91.5453 350.943 150.117 321.077 176.17 277.361L176.81 276.253C195.999 243.017 197.836 196.151 156.638 170.56C146.845 164.414 135.312 156.77 123.117 148.581L123.113 148.579C74.2666 115.945 7.33836 71.2324 -61.5428 53.2924C-143.938 31.9823 -208.605 53.2408 -259.233 118.385C-259.253 118.42 -259.344 118.561 -259.5 118.803L-259.501 118.803C-260.453 120.276 -263.824 125.492 -268.341 133.315ZM-282.472 188.51C-274.74 168.354 -265.401 150.769 -258.72 139.197C-255.715 133.992 -253.26 130.041 -251.762 127.629L-251.762 127.629L-251.762 127.629C-250.745 125.991 -250.169 125.064 -250.161 124.936C-202.011 62.9567 -140.576 42.7866 -62.2882 63.0383C3.36162 80.0968 66.8947 122.522 113.372 153.623C115.106 154.771 116.823 155.909 118.521 157.034L118.552 157.054L118.558 157.058L118.559 157.059L118.559 157.059C128.265 163.49 137.345 169.507 145.256 174.493C184.379 198.886 182.754 243.412 164.489 275.048L163.92 276.033C139.513 317.194 84.9284 345.252 22.2072 311.184C47.5774 323.539 73.4817 326.119 97.4488 318.735C119.838 311.802 139.954 295.842 152.351 274.934L152.92 273.949C162.514 257.331 166.588 239.002 164.533 222.552C161.866 203.779 151.517 188.449 134.666 177.899C126.478 172.869 116.979 166.525 106.994 159.857L106.991 159.855L105.819 159.073L104.42 158.138L103.511 157.533L103.511 157.532C59.5336 128.209 -0.495775 88.1821 -62.363 72.1864C-96.4639 63.3308 -127.794 62.6401 -155.672 70.3434C-188.114 79.187 -216.989 99.609 -241.313 131.029C-241.319 131.04 -241.358 131.1 -241.429 131.209C-242.983 133.583 -259.631 159.023 -272.091 191.385C-284.064 222.55 -294.34 266.841 -275.328 300.139C-267.297 314.131 -253.844 320.421 -232.995 319.82C-214.924 319.377 -192.721 313.597 -169.112 307.452C-168.139 307.199 -167.165 306.945 -166.188 306.691C-112.399 292.538 -45.4801 275.007 11.9037 305.695C-13.6201 293.254 -42.8074 288.306 -76.8663 290.639C-109.587 292.921 -142.517 301.483 -171.533 309.185C-225.247 323.309 -267.639 334.45 -285.857 302.595C-305.908 267.712 -295.054 221.293 -282.472 188.51ZM-249.15 144.887C-255.476 155.842 -264.318 172.567 -271.603 191.667C-283.505 222.709 -293.832 266.806 -274.871 299.911C-257.619 330.059 -217.351 319.497 -166.463 306.04C-116.061 292.777 -54.2124 276.568 0.672441 299.568C-52.0628 275.189 -112.365 290.953 -161.259 303.792C-184.676 309.968 -206.741 315.775 -224.418 316.238C-244.128 316.839 -256.971 310.902 -264.534 297.508C-282.528 266.111 -272.779 224.142 -261.415 194.594C-249.138 162.62 -232.433 137.633 -232.169 137.457C-209.156 107.742 -181.936 88.4979 -151.162 80.0049C-124.828 72.7227 -95.0739 73.3244 -62.9658 81.686C-4.18819 96.978 52.6476 134.939 94.295 162.756L94.2952 162.756L94.7464 163.058C105.059 169.996 114.955 176.53 123.355 181.708C139.423 191.642 149.06 206.233 151.543 223.915C153.638 239.732 149.889 256.935 140.792 272.691L140.223 273.676C128.466 293.477 109.549 308.488 88.1249 315.157C67.0861 321.679 44.5476 319.995 22.3399 310.474C79.7347 338.713 129.238 312.476 151.741 274.582L152.31 273.597C169.58 243.684 171.186 201.446 134.066 178.373C126.161 173.517 117.128 167.491 107.456 161.038C106.254 160.236 105.042 159.427 103.821 158.613L102.857 157.97C58.8859 128.651 -0.998995 88.7204 -62.8403 72.7315C-137.142 53.4678 -195.417 72.6726 -241.018 131.364C-241.026 131.492 -241.582 132.385 -242.559 133.952L-242.559 133.952L-242.559 133.952C-243.99 136.247 -246.321 139.986 -249.15 144.887ZM-260.734 194.824C-253.773 176.849 -245.428 160.987 -239.458 150.646C-234.981 142.891 -231.894 138.108 -231.701 138.056C-188.507 82.4062 -133.465 64.2898 -63.2702 82.4951C-4.61426 97.7168 52.221 135.678 93.8684 163.495L94.32 163.796C97.2595 165.726 100.154 167.642 102.985 169.516L102.989 169.519C110.154 174.264 116.907 178.735 122.928 182.447C158.045 204.198 156.457 244.15 140.111 272.462L139.613 273.324C118.324 309.114 71.5289 333.964 17.1139 307.153C38.0708 316.094 59.2061 317.618 78.9938 311.527C99.188 305.296 117.048 290.988 128.095 272.418L128.593 271.557C137.192 256.662 140.759 240.339 138.603 225.472C136.304 208.88 127.064 195.011 111.972 185.641C106.313 182.139 99.9883 177.917 93.269 173.431L93.2679 173.43C90.5928 171.644 87.8553 169.817 85.0724 167.977C45.7545 141.665 -8.00512 105.703 -63.6401 91.3085C-94.0707 83.4231 -122.056 82.8579 -146.845 89.7189C-175.881 97.7381 -201.516 115.928 -223.219 143.938C-223.226 143.949 -223.266 144.01 -223.338 144.12L-223.339 144.121L-223.339 144.121C-224.826 146.384 -239.749 169.094 -250.739 197.804C-261.495 225.733 -270.646 265.257 -253.618 294.947C-238.025 322.332 -201.813 312.876 -156.138 300.84C-109.876 288.622 -52.7286 273.531 -2.8327 297.086C-54.8028 275.108 -113.4 290.497 -161.264 303.068L-161.341 303.088C-209.526 315.808 -247.599 325.668 -263.883 297.227C-281.756 265.9 -272.098 224.371 -260.734 194.824ZM-229.96 156.459C-235.575 166.183 -243.544 181.114 -250.007 198.227C-260.62 225.91 -269.751 265.117 -252.968 294.666C-237.698 321.421 -202.283 312.17 -157.287 300.417L-156.413 300.189C-110.665 288.105 -54.4187 273.341 -4.8477 295.531C-52.1911 271.94 -106.826 286.241 -151.017 297.888L-151.09 297.907C-194.027 309.197 -227.963 318.12 -242.702 292.387C-258.641 264.474 -250.088 227.395 -240.012 201.207C-229.681 174.187 -215.759 152.963 -214.336 150.792C-214.265 150.684 -214.225 150.623 -214.218 150.611C-193.825 124.308 -169.653 107.242 -142.477 99.6265C-119.111 93.257 -92.8231 93.6627 -64.2634 101.125C-12.282 114.631 38.1114 148.21 74.9667 172.767L75.4494 173.089L76.6984 173.922L78.2854 174.981L78.2868 174.982C86.4006 180.397 94.0587 185.508 100.712 189.644C132.36 209.229 131.034 245.064 116.393 270.422L115.896 271.284C105.489 288.746 88.7561 302.227 69.7916 308.019C50.4511 314.015 29.8315 312.168 9.49342 302.947C61.7159 330.189 106.975 306.485 127.221 272.242L127.718 271.38C143.141 244.668 144.517 207.056 111.475 186.503C103.563 181.606 94.2773 175.425 84.5749 168.838C45.257 142.527 -8.50262 106.565 -64.0156 92.2407C-130.225 75.0234 -182.107 92.1745 -222.751 144.536C-222.731 144.613 -223.198 145.354 -224.038 146.688L-224.038 146.689L-224.038 146.689L-224.039 146.689C-225.3 148.691 -227.401 152.027 -229.96 156.459ZM-239.138 201.383C-232.999 185.396 -225.527 171.327 -220.268 162.218C-216.985 156.532 -214.483 152.595 -213.681 151.334C-213.528 151.094 -213.437 150.95 -213.415 150.911C-175.319 101.837 -126.476 85.7223 -64.3747 101.881C-12.614 115.433 37.6309 148.912 74.4797 173.466L74.4801 173.466L75.023 173.828C75.7301 174.299 76.4344 174.769 77.1353 175.237L77.859 175.72L77.8604 175.721C85.9742 181.136 93.6323 186.247 100.285 190.382C131.324 209.615 129.966 244.94 115.539 269.929L115.113 270.667C96.4021 302.266 55.2559 324.218 7.40126 300.888C25.4836 308.412 43.7171 309.587 60.7315 304.266C78.3442 298.842 94.0712 286.257 103.839 269.903L104.265 269.164C117.982 245.407 119.218 211.982 89.6954 193.788C82.7596 189.455 74.6235 184.101 66.0704 178.342L65.2397 177.788C30.7867 154.783 -16.1089 123.471 -64.5717 110.959C-91.3318 104.043 -115.973 103.604 -137.794 109.552C-163.284 116.5 -185.87 132.511 -204.953 157.109C-205.146 157.162 -219.048 177.859 -229.143 204.363C-238.539 228.81 -246.565 263.567 -231.523 289.65C-217.749 313.678 -186.127 305.384 -145.89 294.83L-145.825 294.813C-105.314 284.16 -55.5973 271.091 -12.0255 291.164C-57.8654 272.301 -109.209 285.832 -151.272 296.92L-151.798 297.058C-194.134 308.187 -227.567 316.976 -241.91 291.859C-257.675 264.21 -249.142 227.448 -239.138 201.383ZM-230.923 289.175C-253.355 249.963 -223.918 190.803 -210.415 167.415C-207.517 162.397 -205.337 159.01 -204.604 157.871C-204.456 157.641 -204.367 157.503 -204.343 157.462C-168.532 111.5 -123.043 96.4032 -64.9271 111.574C-16.2752 124.238 30.9268 155.753 65.4529 178.805L65.4709 178.817C74.1461 184.646 82.2822 190 89.218 194.333C118.182 212.368 116.914 245.283 103.411 268.671L102.984 269.41C85.9503 298.126 48.9609 318.315 5.69892 299.203C21.1848 304.762 36.7535 305.337 51.3363 300.811C67.7904 295.703 82.3897 283.944 91.5175 268.698L91.9439 267.959C104.737 245.802 106.026 214.541 78.4552 197.474C73.7088 194.614 68.4661 191.12 62.8727 187.392C60.784 185.999 58.6465 184.575 56.4675 183.138C24.4315 161.688 -19.7477 132.242 -65.1749 120.458C-89.9422 114.037 -112.937 113.563 -133.284 119.213C-157.035 125.688 -178.037 140.644 -195.81 163.537C-195.822 163.559 -195.878 163.644 -195.973 163.792C-199.147 168.699 -246.475 241.879 -220.607 287.089C-207.742 309.617 -178.217 301.879 -140.775 291.984C-104.925 282.584 -61.1748 271.114 -22.0487 286.228C-63.276 272.176 -108.777 284.141 -146.151 293.968L-146.222 293.987C-186.07 304.435 -217.496 312.675 -230.923 289.175ZM-219.814 286.562C-240.71 250.043 -213.373 195.086 -200.794 173.297C-198.089 168.612 -196.092 165.54 -195.404 164.48L-195.331 164.369C-195.231 164.214 -195.169 164.118 -195.149 164.083C-162.009 121.339 -119.63 107.401 -65.5503 121.39C-20.2452 133.103 23.812 162.479 55.8481 183.929C56.779 184.543 57.705 185.154 58.6248 185.761L58.6265 185.762L58.6283 185.763C65.625 190.379 72.26 194.756 77.9577 198.336C104.918 215.05 103.791 245.748 91.2117 267.536L90.7853 268.275C74.4155 295.814 38.2753 314.984 -3.69887 294.092C11.8099 300.512 27.4839 301.581 42.1544 296.986C57.5719 292.265 71.0943 281.526 79.4605 267.317L79.8158 266.701C91.6845 246.144 92.7618 217.223 67.0729 201.406C61.8493 198.103 55.7973 194.069 49.3966 189.802C48.4947 189.201 47.586 188.596 46.6717 187.987C17.0052 168.068 -23.706 140.789 -65.9 129.887C-88.9897 123.942 -110.215 123.504 -129.017 128.734C-150.909 134.805 -170.447 148.637 -186.91 169.824C-186.917 169.835 -186.933 169.861 -186.959 169.901C-186.987 169.944 -187.025 170.004 -187.074 170.079C-190.124 174.798 -233.83 242.413 -209.864 284.264C-197.966 305.084 -170.565 297.926 -135.826 288.768L-135.487 288.679C-100.503 279.534 -57.6385 268.33 -20.0431 285.917C-59.7079 269.689 -104.238 281.367 -140.685 290.925L-141.03 291.016L-141.109 291.036C-178.056 300.694 -207.355 308.352 -219.814 286.562ZM-191.173 179.18C-202.829 199.368 -228.135 250.245 -208.827 283.878C-197.204 304.047 -170.19 296.994 -135.959 287.87C-103.559 279.31 -64.1808 269.006 -28.3878 281.471C-61.8892 267.894 -99.5438 277.813 -130.396 285.941L-130.396 285.941L-130.396 285.941L-130.654 286.009L-130.827 286.055C-162.588 294.403 -187.864 301.046 -198.826 281.774C-220.834 243.241 -180.504 180.766 -177.85 176.655L-177.849 176.653C-177.772 176.533 -177.727 176.463 -177.716 176.445C-149.604 140.154 -112.073 127.849 -66.4014 139.774C-27.8254 149.797 9.43251 174.66 36.764 192.898L37.1706 193.17C43.9643 197.749 50.463 201.993 55.9344 205.48C79.6198 219.976 78.5612 246.61 67.6875 265.444L67.3321 266.059C59.6056 279.16 47.0889 289.003 33.0231 293.356C20.4011 297.274 7.02225 296.699 -6.35626 291.845C31.4595 309.291 63.8259 291.892 78.6063 266.824C90.5768 246.653 91.8982 217.873 66.7685 202.216C60.809 198.447 53.7001 193.85 46.3673 188.796L45.4425 188.18C15.7888 168.439 -24.514 141.609 -65.9603 130.837C-115.932 117.906 -155.273 130.809 -185.934 170.387C-185.979 170.465 -186.103 170.668 -186.3 170.989L-186.303 170.994L-186.305 170.997C-187.05 172.214 -188.818 175.1 -191.173 179.18ZM-197.912 281.317C-215.611 250.254 -192.406 203.58 -181.675 184.992C-179.415 181.078 -177.655 178.404 -177.004 177.416L-177.004 177.415L-177.004 177.415C-176.857 177.191 -176.766 177.054 -176.74 177.009C-148.435 140.665 -112.448 128.781 -66.4617 140.723C-28.1289 150.606 9.12753 175.468 36.4589 193.707L36.8663 193.979L37.9293 194.696L38.4396 195.04L38.4987 195.08C44.6885 199.254 50.5335 203.196 55.6301 206.289C78.5122 220.485 77.4938 246.486 66.8333 264.951L66.4779 265.566C52.5984 288.801 22.4273 305.01 -12.6714 288.189C17.512 299.611 43.1944 285.097 55.204 264.801L55.4883 264.309C65.4381 247.075 66.356 222.658 44.8873 209.114C41.4693 207.03 37.7024 204.519 33.6873 201.842C31.765 200.561 29.7859 199.242 27.7609 197.913C2.88463 181.253 -31.4701 158.464 -66.8114 149.22C-108.568 138.406 -142.868 149.624 -168.502 182.75C-168.513 182.768 -168.557 182.837 -168.633 182.955L-168.636 182.959L-168.636 182.959C-171.167 186.883 -207.873 243.792 -187.768 278.967C-177.772 296.533 -154.81 290.519 -125.75 282.907L-125.584 282.864L-124.888 282.683C-96.0112 275.197 -60.6717 266.034 -29.6467 279.948C-63.0907 267.277 -100.344 276.988 -130.909 285.042L-131.083 285.087C-162.457 293.33 -187.346 299.868 -197.912 281.317ZM-171.983 190.752C-181.72 207.616 -202.965 250.333 -186.732 278.581C-177.132 295.426 -154.557 289.516 -125.884 282.01L-125.717 281.966C-98.6777 274.865 -66.0582 266.319 -36.3281 276.288C-63.9308 265.256 -94.9719 273.359 -120.412 280.106C-145.76 286.808 -167.631 292.563 -176.802 276.6C-195.058 244.689 -161.655 193.017 -159.487 189.663L-159.419 189.557C-159.407 189.538 -159.397 189.523 -159.39 189.512C-159.385 189.504 -159.381 189.498 -159.379 189.494C-136.101 159.604 -105.155 149.404 -67.3129 159.107C-35.3268 167.398 -4.31794 188.091 18.3108 203.29L19.3216 203.962L20.1259 204.497L20.1267 204.497C25.0873 207.797 29.7268 210.883 33.7998 213.381C53.0919 225.34 52.3859 247.418 43.36 263.052L43.0757 263.544C32.3653 281.599 9.85276 294.616 -16.7541 285.416C14.8246 299.948 41.9359 285.279 54.3498 264.308C64.4015 247.462 65.4924 223.308 44.3697 210.292C40.9518 208.208 37.185 205.697 33.17 203.021L33.1655 203.018L33.1627 203.016L33.1586 203.013C31.2399 201.734 29.2644 200.417 27.2433 199.091C2.36706 182.431 -31.7946 159.589 -67.0139 150.416C-108.893 139.532 -141.841 150.381 -167.475 183.507C-167.81 183.806 -169.496 186.443 -171.983 190.752ZM-175.867 275.827C-190.442 250.342 -171.297 211.828 -162.485 196.564C-160.744 193.549 -159.431 191.44 -158.815 190.452L-158.815 190.451L-158.815 190.451L-158.814 190.449L-158.813 190.448L-158.645 190.177C-158.583 190.078 -158.534 189.999 -158.499 189.94C-158.48 189.909 -158.465 189.884 -158.454 189.865C-105.541 121.608 -28.3493 173.068 17.6403 203.888L18.4762 204.443L19.2912 204.985L19.4196 205.071L19.4587 205.097L19.4604 205.098C24.4194 208.397 29.0574 211.482 33.1292 213.979C51.9333 225.656 51.0744 247.154 42.3328 262.295L42.0485 262.787C31.1336 281.175 7.67699 294.255 -19.8784 282.837C2.76225 289.265 21.6711 277.878 30.8767 262.409L31.1609 261.917C39.2629 247.884 40.0214 227.97 22.5396 217.384C21.3873 216.624 20.1745 215.83 18.9116 215.002L18.9097 215.001C15.7812 212.951 12.345 210.7 8.75906 208.279C-11.5711 194.736 -39.3051 176.262 -67.8649 168.8C-101.651 159.962 -129.365 169.073 -150.236 195.922C-150.244 195.936 -150.279 195.99 -150.338 196.081L-150.343 196.09L-150.344 196.09C-152.39 199.259 -182.168 245.365 -165.815 273.916C-157.682 288.295 -137.935 283.119 -115.291 277.154C-94.1087 271.555 -68.5283 264.833 -45.0733 272.074C-70.5076 265.604 -97.7568 272.732 -120.509 278.683L-120.769 278.751C-146.696 285.611 -167.216 290.997 -175.867 275.827ZM-152.864 202.447C-160.753 216.111 -177.867 250.544 -164.829 273.336C-157.023 286.87 -138.82 282.115 -115.596 275.992L-114.996 275.836C-93.1514 270.149 -66.8775 263.308 -42.8919 271.446C-64.8671 261.968 -89.8049 268.532 -110.17 273.892L-110.342 273.937C-130.476 279.218 -147.714 283.71 -155.072 271.091C-169.524 245.897 -143.362 205.35 -141.445 202.377C-141.413 202.329 -141.388 202.29 -141.37 202.262C-141.352 202.234 -141.341 202.216 -141.337 202.208C-122.944 178.524 -98.4615 170.502 -68.5902 178.229C-43.4884 184.712 -19.0754 201.053 -1.25552 212.981L-1.03697 213.127C0.838668 214.347 2.6382 215.552 4.35938 216.704L4.36128 216.705C6.76435 218.314 9.01465 219.82 11.1061 221.123C26.7574 230.652 26.0887 248.156 18.9107 260.588L18.6974 260.958C10.2834 275.042 -7.1734 285.265 -27.8769 278.458C-2.19707 290.527 19.8341 278.746 29.9714 261.722L30.1847 261.353C38.0024 247.812 38.7715 228.725 21.971 218.369C18.0789 215.965 13.538 212.888 8.86152 209.719L8.86086 209.718L8.8604 209.718L8.1905 209.264C-33.0089 181.702 -101.82 135.737 -149.209 196.679C-149.402 196.732 -150.803 198.877 -152.864 202.447ZM-153.964 270.581C-165.343 250.553 -150.33 220.322 -143.366 208.259C-142.645 207.01 -142.009 205.955 -141.511 205.13C-140.783 203.921 -140.35 203.204 -140.381 203.089C-98.8078 149.381 -38.2217 189.841 -1.92064 214.083L-1.79863 214.165C2.62547 217.211 6.87653 219.994 10.4665 222.231C25.4365 231.53 24.615 248.454 17.528 260.447C8.67902 275.505 -10.8904 285.863 -33.6281 275.03C-15.7121 280.741 -0.664192 271.986 6.56926 259.701L6.78248 259.331C12.9656 248.622 13.6155 233.405 0.160908 225.144C-2.32867 223.575 -5.08692 221.745 -8.08746 219.755C-8.82539 219.265 -9.57796 218.766 -10.3448 218.258C-25.8137 207.85 -46.998 193.814 -68.8983 188.063C-94.7841 181.325 -116.106 188.382 -132.02 208.901C-133.066 210.431 -156.777 246.144 -143.912 268.672C-137.628 279.642 -122.775 275.77 -105.475 271.259L-105.17 271.18C-87.842 266.55 -66.5766 260.933 -47.756 268.567C-68.7594 261.89 -91.7478 267.904 -110.719 272.899C-131.046 278.233 -147.125 282.408 -153.964 270.581ZM-133.674 214.019C-139.644 224.359 -152.698 250.633 -142.784 267.845C-136.983 278.088 -122.957 274.369 -105.456 269.702L-105.288 269.658C-89.809 265.604 -71.3905 260.78 -54.1333 265.014C-69.2951 260.034 -86.0922 264.396 -99.9208 267.988L-100.1 268.034C-114.898 271.964 -127.572 275.316 -132.976 265.794C-143.343 247.668 -125.714 219.579 -123.198 215.57C-123.061 215.352 -122.969 215.205 -122.928 215.135C-91.7896 175.011 -46.8273 205.073 -19.9475 223.054C-17.3278 224.829 -14.8188 226.435 -12.6443 227.827L-12.644 227.828L-11.8744 228.32C-11.6031 228.494 -11.3379 228.664 -11.0792 228.831C0.351761 236.087 -0.0864027 248.964 -5.41666 258.197L-5.55879 258.443C-11.4038 268.334 -23.3633 275.589 -37.6165 272.007C-18.447 280.671 -1.96312 271.679 5.54203 258.943L5.75524 258.574C11.6541 248.357 12.1927 233.896 -0.458624 225.936C-3.09578 224.273 -6.12265 222.268 -9.35784 220.124L-10.0424 219.67C-10.3883 219.441 -10.7363 219.211 -11.0863 218.979L-11.209 218.897C-42.598 197.983 -94.9965 163.071 -130.973 209.341L-133.674 214.019ZM-131.869 265.285C-140.174 250.642 -129.221 228.571 -124.175 219.831C-123.14 218.038 -122.304 216.775 -121.985 216.293C-121.91 216.179 -121.863 216.109 -121.85 216.086C-91.4731 176.999 -47.0499 206.586 -20.6582 224.285C-17.9152 226.144 -15.2936 227.817 -12.9785 229.295L-12.9775 229.296L-12.4276 229.647L-12.1713 229.81L-11.6679 230.132C-0.898038 236.843 -1.48908 249.139 -6.65708 257.809C-13.1275 268.748 -27.3349 276.259 -43.7854 268.403C-32.4813 270.999 -22.5795 265.43 -17.687 257.185L-17.5449 256.939C-13.2096 249.43 -12.9122 238.769 -22.2177 232.904C-23.5736 232.121 -25.0149 231.164 -26.563 230.136L-26.5647 230.135L-26.565 230.134C-27.5242 229.497 -28.5244 228.833 -29.5706 228.166L-29.5755 228.163C-51.6656 213.44 -88.4374 188.931 -113.927 221.808C-113.96 221.866 -114.036 221.986 -114.148 222.164L-114.148 222.165C-116.21 225.449 -130.664 248.468 -122.132 263.356C-117.694 271.17 -107.144 268.398 -95.0498 265.205C-83.6852 262.197 -69.7426 258.565 -57.2613 262.791C-71.842 259.317 -87.3878 263.407 -100.406 266.873L-100.673 266.942C-115.465 270.769 -127.063 273.77 -131.869 265.285ZM-120.882 262.6C-127.599 250.844 -118.677 232.853 -114.555 225.713L-114.554 225.713C-113.488 223.867 -112.849 222.759 -112.656 222.706C-87.9259 190.864 -51.8828 214.956 -30.2813 229.397C-27.5456 231.141 -25.0539 232.744 -22.9284 234.135C-14.284 239.454 -14.7142 249.217 -18.7652 256.234L-18.9074 256.48C-24.4307 265.765 -36.8483 272.054 -51.0754 264.005C-65.126 256.053 -81.3416 260.228 -94.5679 263.634L-95.4066 263.85L-96.1209 264.032C-107.804 267.019 -116.971 269.362 -120.882 262.6Z" fill="url(#paint0_linear_3332_514)"/>
<defs>
<linearGradient id="paint0_linear_3332_514" x1="-175.309" y1="429.117" x2="46.1732" y2="45.4991" gradientUnits="userSpaceOnUse">
<stop stop-color="#FFD110" stop-opacity="0"/>
<stop offset="0.286458" stop-color="#109BFF"/>
<stop offset="0.614583" stop-color="#FF0469"/>
<stop offset="1" stop-color="#04DA00" stop-opacity="0"/>
</linearGradient>
</defs>
</svg>
