<svg width="1440" height="1099" viewBox="0 0 1440 1099" fill="none" xmlns="http://www.w3.org/2000/svg">
<path opacity="0.33" fill-rule="evenodd" clip-rule="evenodd" d="M18.7616 1052.6L16.2842 1051.94C-9.33004 1044.83 -33.2266 1033.12 -55.0756 1017.37C-77.9301 1000.86 -96.875 980.579 -111.355 957.146C-144.454 904.103 -152.351 838.984 -133.973 768.595C-95.7472 621.443 -174.142 482.393 -237.366 370.252L-237.937 369.238C-266.668 318.814 -293.69 271.02 -305.672 230.152C-319.105 184.793 -313.342 151.576 -287.283 125.489C-259.96 98.2909 -222.72 80.0265 -175.97 71.3109C-138.804 64.1309 -95.8026 63.1007 -47.8671 67.9792C29.3933 75.871 94.1346 97.3166 101.469 99.7462C101.874 99.8804 102.104 99.9566 102.152 99.9693C144.89 117.938 182.29 140.512 213.123 166.878C242.006 191.514 266.182 220.2 284.648 252.184L284.649 252.186C285.802 254.184 286.956 256.182 287.884 258.12C252.201 194.005 193.286 139.114 101.97 100.645C101.906 100.628 101.625 100.536 101.138 100.376C93.0927 97.7466 28.7777 76.7225 -47.823 68.7152C-122.97 60.8905 -225.345 64.5984 -286.953 126.06C-312.667 151.757 -318.654 184.913 -305.161 230.048C-292.954 270.975 -266.157 318.709 -237.651 369.073C-205.683 425.435 -169.714 489.385 -146.86 556.339C-122.031 629.353 -116.86 695.581 -131.017 758.402C-95.1874 617.367 -170.511 484.046 -231.173 376.675L-231.174 376.674L-231.382 376.305C-232.214 374.824 -233.045 373.345 -233.875 371.869C-260.251 324.925 -285.123 280.66 -296.435 242.524C-309.104 198.818 -303.418 166.788 -278.621 141.81C-252.336 115.783 -216.464 98.1176 -171.757 89.8201C-135.898 83.0139 -94.5939 82.0118 -48.5204 86.6327C26.0626 94.4145 88.8521 115.067 95.0804 117.116L95.0811 117.116C95.3823 117.215 95.5511 117.271 95.5823 117.279C136.579 134.54 172.524 156.241 202.187 181.569C229.899 205.168 253.13 232.876 270.996 263.492C277.261 274.344 282.955 285.525 288.018 297.261C255.83 223.703 196.264 160.43 95.4013 117.955C95.3362 117.937 95.0582 117.847 94.577 117.69L94.5761 117.689L94.5754 117.689C86.7302 115.131 24.9799 94.9982 -48.4762 87.3687C-120.575 79.8781 -219.045 83.4255 -278.066 142.442C-302.803 167.194 -308.428 198.999 -295.639 242.255C-283.971 281.59 -258.103 327.385 -230.751 375.75C-200.101 429.827 -165.391 491.268 -143.57 555.773C-120.893 622.808 -115.215 683.905 -126.538 741.746C-96.8229 609.255 -167.589 484.117 -224.767 383.147C-251.13 336.495 -275.844 292.699 -287.198 254.896C-299.613 212.947 -294.29 182.269 -270.306 158.521C-245.223 133.379 -210.779 116.538 -167.829 108.494C-133.503 102.001 -93.6706 101.087 -49.7448 105.615C21.8799 113.073 81.8923 132.77 87.9454 134.757C88.243 134.855 88.4102 134.91 88.4419 134.918C102.194 140.741 115.312 147.047 127.784 153.833C115.528 147.234 102.62 141.067 89.0572 135.324C88.9508 135.296 88.5701 135.176 87.9284 134.974C84.4928 133.891 73.5779 130.452 57.2575 126.079C31.8081 119.26 -6.61539 110.413 -49.1295 106.022C-118.179 98.8653 -212.519 102.312 -269.18 158.823C-292.939 182.631 -298.202 213.084 -285.891 254.522C-275.112 291.079 -251.376 333.371 -226.145 378.329L-225.172 380.063L-223.685 382.712L-221.923 385.843C-193.088 437.078 -160.706 494.614 -140.055 555.266C-117.964 620.384 -112.82 679.345 -124.027 735.452C-94.2594 607.792 -162.481 487.047 -217.641 389.884C-218.416 388.501 -219.189 387.121 -219.962 385.743L-220.098 385.5C-244.183 342.531 -266.922 301.962 -277.165 266.999C-289.102 226.868 -283.915 197.601 -260.848 174.574C-236.803 150.601 -203.726 134.36 -162.534 126.569C-129.74 120.39 -91.5447 119.279 -49.3161 123.835C19.6521 130.965 77.5834 150.252 82.5515 151.906C82.7608 151.976 82.8761 152.014 82.8943 152.019C155.73 182.881 210.001 228.079 243.919 286.169C272.997 336.204 287.972 397.426 288.308 468.243C289.068 597.832 242.117 736.12 207.782 837.236C206.699 840.471 205.622 843.68 204.556 846.86L204.555 846.861C197.299 868.497 190.51 888.738 185.185 906.253C173.514 944.404 149.059 972.611 114.422 987.469C83.3765 1000.63 46.1867 1002.5 9.25129 992.601L6.99914 991.997C-39.4395 978.83 -80.5557 948.501 -105.499 908.264C-132.125 865.456 -140.34 813.92 -129.32 758.093C-161.566 895.829 -80.1933 985.793 10.5204 1011.29L12.7726 1011.89C65.3446 1025.98 127.2 1018.19 165.977 975.832C153.798 989.358 138.836 1000.02 121.382 1007.44C89.9301 1021.22 51.1034 1022.88 12.3663 1012.5L9.88893 1011.84C-38.8018 998.07 -81.7036 966.298 -107.697 924.573C-135.797 879.538 -144.045 825.133 -132.306 766.457C-166.468 910.532 -81.4579 1004.52 13.4104 1031.13L15.6626 1031.73C88.4072 1051.23 178.457 1030.46 206.249 938.45C212.129 918.917 219.818 896.217 228.003 872.055L228.029 871.978C228.827 869.623 229.629 867.254 230.435 864.873L230.985 863.247C266.722 758.097 313.484 619.739 318.659 487.558C313.717 620.062 266.902 758.496 232.045 861.567L232.044 861.569L231.436 863.368C230.446 866.294 229.46 869.203 228.482 872.091L228.456 872.168C220.27 896.332 212.58 919.035 206.699 938.571C194.063 980.325 167.532 1010.87 129.71 1026.81C96.3191 1041.52 55.96 1043.5 15.6464 1032.7L13.169 1032.03C-37.5487 1017.72 -82.236 984.501 -109.444 941.002C-139.726 892.329 -148.024 833.045 -133.602 769.02C-173.435 922.75 -83.8383 1023.18 16.4653 1051.26L18.9427 1051.92C94.6152 1072.2 188.301 1050.47 217.343 954.699C224.174 931.908 233.338 904.914 243.15 876.403L243.518 875.316C279.479 768.998 326.317 630.523 333.977 496.895C326.544 631.214 279.677 770.237 244.444 874.751L243.826 876.585C242.879 879.405 241.937 882.211 241.001 884.998L239.908 888.248L239.903 888.264C231.761 912.492 224.106 935.272 218.019 954.88C204.96 998.211 177.167 1029.87 137.856 1046.85C102.933 1061.88 60.6518 1063.82 18.7616 1052.6ZM319.108 458.87C319.191 468.39 319.035 477.958 318.659 487.558C318.984 478.85 319.128 470.167 319.075 461.521C319.09 460.639 319.101 459.755 319.108 458.87ZM318.679 441.38C318.916 447.19 319.057 453.021 319.108 458.87C319.154 453.014 319.024 447.135 318.679 441.38ZM195.544 922.546C188.933 944.326 178.696 961.939 165.977 975.832C179.079 961.281 188.96 943.416 195.258 922.711C201.607 901.722 209.942 876.919 218.925 850.601C254.692 745.042 303.558 600.508 302.895 465.151C302.443 391.165 286.945 327.389 256.549 275.07C227.594 225.187 184.323 184.593 127.784 153.833C244.616 216.736 302.154 318.795 303.12 465.212C303.844 600.343 254.978 744.877 219.211 850.436C210.228 876.754 201.892 901.557 195.544 922.546ZM-49.5575 124.736C-8.9054 128.869 27.9417 137.294 52.265 143.812C64.1555 146.998 73.0517 149.782 77.9564 151.317C80.6694 152.166 82.1611 152.632 82.2628 152.574C219.289 210.532 286.271 313.691 287.121 468.167C287.717 597.47 240.991 735.819 206.656 836.934C206.284 838.041 205.913 839.147 205.543 840.25L204.207 844.229L204.206 844.231C196.698 866.593 189.57 887.824 184.059 905.951C158.545 990.36 75.9314 1009.5 9.26746 991.639L7.24051 991.096C-78.3655 966.99 -155.019 883.303 -127.954 754.917C-136.606 805.705 -128.39 852.708 -104.038 892C-80.0231 930.299 -40.8132 959.633 3.65888 972.032L5.91107 972.636C41.2699 982.11 76.9877 980.335 105.99 967.588C139.2 953.555 162.557 926.743 173.58 890.108C178.666 873.469 185.156 854.301 192.108 833.769C193.173 830.625 194.249 827.448 195.332 824.244L195.667 823.253L195.667 823.252C228.256 726.832 272.818 594.986 272.188 471.649C272.128 463.578 271.871 455.635 271.419 447.822C265.059 327.687 213.488 242.305 114.725 188.247C102.457 181.449 89.4847 175.174 75.8144 169.433C75.7812 169.424 75.6109 169.368 75.309 169.268C69.4764 167.345 14.5179 149.222 -50.7052 142.532C-91.0717 138.234 -127.284 139.152 -158.832 145.182C-198.206 152.495 -229.63 167.972 -252.697 191C-274.501 212.917 -279.611 240.997 -268.153 279.311C-258.045 313.359 -235.825 352.755 -212.209 394.627L-211.025 396.726C-159.564 487.445 -96.2117 599.367 -119.832 718.172C-111.27 667.219 -116.841 613.423 -136.765 554.699C-156.865 495.483 -188.608 439.183 -216.784 389.39L-217.939 387.344C-242.717 343.458 -265.94 302.327 -276.368 266.73C-288.14 226.884 -283.014 197.842 -260.293 175.205C-206.219 121.139 -115.784 117.853 -49.5575 124.736ZM76.4297 169.839C89.9008 175.512 102.665 181.646 114.725 188.247C165.151 216.191 203.657 252.97 229.697 297.808C254.136 339.847 268.087 390.303 271.419 447.822C271.822 455.454 272.044 463.225 272.084 471.138C272.774 594.251 228.212 726.096 195.623 822.516L195.622 822.517L195.287 823.508C186.908 847.574 179.341 870.41 173.475 889.598C149.212 970.238 70.2344 988.423 6.4983 971.345L4.47141 970.802C-77.1461 947.999 -150.248 868.165 -124.779 745.84C-132.867 794.056 -125.176 838.763 -101.901 875.917C-79.1006 912.442 -41.6761 940.332 0.769027 952.188L2.79597 952.731C36.5783 961.783 70.3737 959.976 98.9096 948.07C130.526 934.575 152.846 908.933 163.386 874.101C169.07 855.588 176.275 834.104 184.128 811.104L184.131 811.095C215.316 719.034 258.044 592.895 257.315 474.905C256.762 410.306 243.222 354.537 216.782 309.072C185.892 255.896 136.588 214.684 69.9812 186.698C69.9683 186.695 69.9355 186.685 69.8833 186.668C69.8533 186.658 69.8168 186.646 69.774 186.632L69.4816 186.536C63.835 184.678 11.6479 167.508 -50.6225 161.142C-88.9017 157.161 -123.642 157.991 -153.657 163.707C-191.049 170.827 -221.045 185.48 -243.074 207.337C-264.126 228.249 -268.649 255.039 -257.955 291.699C-248.382 324.165 -227.304 361.579 -204.836 401.462L-203.674 403.524L-203.538 403.765C-154.7 490.255 -94.4844 596.893 -116.896 709.982C-108.838 661.43 -114.28 610.042 -133.19 553.968C-152.205 497.755 -182.447 444.26 -209.19 396.955L-209.658 396.127C-233.773 353.698 -256.283 313.389 -266.62 278.997C-277.914 240.969 -273.15 213.279 -251.406 191.587C-199.693 140.027 -113.389 136.84 -50.2106 143.389C-11.481 147.491 23.7895 155.493 46.9868 161.709C55.3686 163.955 62.2223 165.956 67.2088 167.412L67.2092 167.412L67.2095 167.412L67.2098 167.412L67.2103 167.412L67.2111 167.413L67.2119 167.413L67.2125 167.413L67.2135 167.413C72.6751 169.008 75.8958 169.949 76.4297 169.839ZM41.9941 179.441C19.6977 173.466 -13.7711 165.947 -50.8639 162.043C-111.219 155.768 -193.393 158.854 -242.805 208.134C-263.511 228.656 -267.974 255.22 -257.383 291.369C-247.585 324.168 -226.004 362.539 -203.043 402.969L-202.554 403.835L-202.553 403.836C-177.132 448.851 -148.223 500.043 -130.185 553.566C-110.324 612.28 -106.182 665.271 -117.385 715.7C-117.376 715.665 -117.367 715.63 -117.358 715.595C-88.1455 602.969 -148.395 496.304 -196.894 410.651L-198.062 408.574C-219.377 370.69 -239.458 335 -248.492 304.131C-258.708 269.289 -254.322 243.911 -234.473 223.884C-187.301 176.659 -108.807 173.794 -51.0503 179.855C8.52301 185.889 58.6005 202.631 63.2309 204.179L63.2329 204.18C63.3198 204.209 63.3906 204.232 63.4451 204.25C63.5215 204.276 63.5657 204.29 63.5771 204.293C126.926 230.923 173.889 270.06 203.071 320.605C228.131 364.011 241.209 417.001 241.421 478.37C242.022 590.536 201.431 710.494 171.678 798.112C170.579 801.401 169.489 804.66 168.411 807.883L168.408 807.889C162.298 826.152 156.581 843.239 152.006 858.016C141.888 891.272 120.667 915.518 90.6427 928.474C63.9852 939.677 31.6618 941.396 -0.318886 932.826L-2.34583 932.283C-42.764 920.97 -78.4029 894.524 -99.9888 859.773C-123.968 821.361 -130.579 774.626 -119.42 724.181C-119.442 724.267 -119.464 724.354 -119.487 724.44C-151.596 847.877 -79.5404 928.497 0.785228 951.227L2.81217 951.77C63.6204 968.064 138.737 950.776 161.974 873.964C167.598 855.677 174.864 833.967 182.716 810.967L182.719 810.959C213.904 718.897 256.633 592.759 256.068 475.054C255.156 334.32 194.186 240.256 69.5146 187.539C69.4511 187.522 69.1896 187.438 68.7403 187.292L68.739 187.292C66.0015 186.408 56.307 183.276 41.9941 179.441ZM-51.5169 180.696C-16.2862 184.342 15.5458 191.665 36.7161 197.337C46.2389 199.889 53.5408 202.102 57.9976 203.453L57.9983 203.454L57.9987 203.454C61.0249 204.371 62.7391 204.891 62.9456 204.848C181.552 254.975 239.434 344.349 240.295 478.069C240.896 590.235 200.365 709.967 170.612 797.585C169.528 800.83 168.452 804.047 167.388 807.227L167.346 807.351L167.344 807.359C161.233 825.623 155.515 842.711 150.94 857.489C128.729 930.472 57.4128 947.089 -0.467597 931.58L-2.26933 931.097C-77.8483 909.892 -145.356 834.858 -117.742 720.03C-126.65 765.862 -119.828 808.328 -98.0169 843.404C-77.5851 876.156 -43.7921 901.384 -5.40092 912.153L-3.59918 912.636C26.805 920.783 57.596 919.378 82.8258 908.999C111.482 896.643 131.441 873.506 141.076 842.052C145.604 826.812 151.665 808.91 158.035 790.094L158.038 790.086L158.689 788.163C159.018 787.191 159.347 786.217 159.678 785.24L160.256 783.528C188.243 700.668 226.445 587.565 225.751 481.896C225.431 423.635 213.326 373.321 189.359 332.139C161.662 284.163 117.099 246.877 57.0077 221.603C56.9881 221.597 56.8758 221.56 56.6741 221.494C52.2539 220.038 4.88288 204.436 -51.7037 198.508C-106.187 192.841 -180.775 195.546 -225.586 240.265C-244.398 259.122 -248.708 283.314 -238.97 316.338C-230.652 344.997 -212.129 377.949 -192.432 412.988L-192.415 413.019L-190.86 415.785L-189.993 417.327C-144.879 497.091 -88.8734 596.358 -113.375 701.208C-104.395 655.094 -108.843 606.364 -126.895 552.998C-144.301 501.746 -171.757 452.87 -196.202 409.87C-241.239 330.214 -276.774 267.345 -233.918 224.515C-187.031 177.455 -108.823 174.755 -51.5169 180.696ZM31.7232 215.069C11.679 209.698 -18.5764 202.798 -51.9451 199.409C-106.203 193.802 -180.506 196.342 -225.031 240.897C-265.587 281.446 -231.865 341.174 -189.076 416.607C-146.8 491.348 -95.0283 583.092 -108.388 680.636C-91.935 585.929 -142.35 496.461 -183.318 423.944C-202.981 389.226 -221.491 356.506 -229.672 328.485C-238.932 297.279 -234.924 274.214 -216.865 256.362C-174.64 214.088 -103.956 211.544 -52.2966 216.937C3.59798 222.741 50.2737 238.627 50.6637 238.973C107.498 262.892 149.494 298.042 175.934 343.508C198.581 382.405 210.163 430.166 210.428 485.032C210.936 585.465 174.665 692.579 148.087 771.069L148.086 771.069L147.799 771.92C141.137 791.377 134.941 809.994 130.267 825.638C121.279 855.576 102.194 877.257 75.1902 888.85C50.9821 899.019 22.1134 900.457 -6.71423 892.732L-8.51597 892.249C-44.8802 882.023 -76.6625 858.299 -96.27 826.975C-115.48 796.202 -122.305 759.494 -116.559 719.933C-137.171 823.744 -74.6927 891.453 -5.09918 911.027L-3.29744 911.51C51.43 926.174 119.11 910.515 140.07 841.3C144.443 826.584 150.196 809.565 156.357 791.34L156.395 791.228L157.329 788.466C157.775 787.146 158.223 785.82 158.672 784.488L159.286 782.671C187.269 699.824 225.379 586.993 224.686 481.369C223.937 354.439 168.918 269.693 56.6015 222.218C56.3942 222.26 54.7431 221.757 51.8456 220.873L51.8449 220.873L51.8439 220.873C47.6014 219.579 40.6879 217.471 31.7232 215.069ZM-52.3731 218.123C-20.9269 221.48 7.75207 227.958 26.6702 233.027C40.8588 236.829 49.7467 239.693 49.9116 239.979C156.389 284.924 208.319 364.979 209.016 484.895C209.584 585.104 173.313 692.217 146.735 770.707L146.447 771.558C144.625 777.083 142.804 782.532 141.023 787.859C136.515 801.349 132.267 814.061 128.915 825.276C109.207 890.723 45.1619 905.425 -6.63776 891.546L-8.21423 891.123C-73.9589 872.58 -133.095 808.596 -113.493 710.159C-118.845 747.472 -112.358 781.871 -94.3582 810.832C-75.9651 840.382 -45.7432 862.722 -11.6311 872.345L-10.0546 872.767C17.1965 880.069 44.5932 878.72 67.2691 868.864C92.6196 858.035 110.728 837.3 119.232 809.164C122.403 798.618 126.437 786.697 130.721 774.034C132.427 768.993 134.172 763.835 135.919 758.598C161.09 684.477 195.486 583.137 194.879 488.108C194.566 436.125 183.671 391.204 162.343 354.591C137.387 311.696 97.7314 278.621 44.1549 256.057C44.1342 256.052 44.0216 256.015 43.8205 255.948L43.8159 255.946L43.8139 255.946L43.8134 255.946C39.5969 254.548 -2.71513 240.523 -52.8895 235.365C-101.726 230.245 -168.279 232.689 -208.203 272.684C-245.074 309.392 -214.815 363.123 -176.477 430.846C-137.604 499.429 -89.5862 584.149 -105.927 673.966C-92.9629 581.518 -142.064 494.612 -182.171 423.625L-182.236 423.51C-222.717 352.074 -254.4 295.548 -216.145 257.279C-173.98 215.23 -104.033 212.73 -52.3731 218.123ZM21.4523 250.699C3.66021 245.931 -23.3818 239.651 -53.2515 236.716C-101.638 231.717 -167.68 234.057 -207.483 273.601C-243.49 309.522 -213.893 362.069 -176.291 428.829L-175.56 430.126C-137.117 497.946 -89.9971 581.37 -104.311 670.081C-86.8351 584.322 -132.541 503.271 -169.637 437.748L-169.698 437.64C-205.699 373.966 -234.153 323.639 -199.541 289.005C-161.978 251.516 -99.5556 249.172 -53.7678 253.958C-6.5529 258.792 32.9814 271.861 37.024 273.197L37.0256 273.197C37.1235 273.23 37.2006 273.255 37.2563 273.273C37.3148 273.293 37.3497 273.304 37.3606 273.307C87.6796 294.514 124.935 325.739 148.467 365.839C168.416 400.393 178.849 442.535 179.045 491.348C179.522 580.161 147.489 675.099 124.062 744.532L123.755 745.441C123.397 746.501 123.04 747.556 122.684 748.608L121.977 750.698L121.948 750.785L121.948 750.786C116.776 766.077 111.895 780.508 108.138 792.914C90.4043 851.89 32.9997 865.234 -13.3947 852.802L-14.9713 852.38C-47.0564 843.3 -75.4927 822.404 -92.6714 794.627C-110.331 766.338 -116.09 732.624 -110.033 696.177C-131.242 791.301 -74.5706 853.326 -11.7194 870.873L-10.1429 871.295C38.7289 884.39 98.9729 870.359 117.656 808.741C122.089 793.997 127.983 776.507 134.343 758.176C159.514 684.055 193.91 582.714 193.242 487.91C192.658 374.783 143.59 299.357 43.4027 257.063C43.2885 257.129 41.9165 256.703 39.4469 255.937L39.4454 255.937L39.4445 255.937C35.7378 254.787 29.56 252.871 21.4523 250.699ZM-53.6794 255.43C-25.7321 258.332 -0.266567 264.19 16.3994 268.656C26.8022 271.443 34.1018 273.74 36.4401 274.475L36.4404 274.475L36.4418 274.476C36.6758 274.549 36.86 274.607 36.9926 274.649C37.1121 274.686 37.1897 274.709 37.2238 274.718C131.121 314.362 177.265 385.384 177.799 491.497C178.111 579.977 146.172 674.636 122.748 744.057L122.403 745.079C121.798 746.872 121.194 748.656 120.595 750.428L120.595 750.429L120.594 750.431C115.423 765.719 110.543 780.148 106.786 792.552C89.3546 850.401 32.7465 863.476 -12.9723 851.226L-14.3236 850.864C-72.3325 834.627 -124.491 778.412 -107.648 691.951C-111.963 724.064 -106.145 753.678 -90.5345 778.544C-74.5099 804.321 -47.9195 823.999 -17.8613 832.535L-16.51 832.898C26.9567 844.544 80.5002 832.097 96.9222 777.115C100.873 764.173 105.938 748.874 111.469 732.735L111.999 731.169C133.975 666.242 163.887 577.865 163.316 495.099C163.01 449.394 153.325 409.867 134.695 377.598C112.932 339.903 78.0177 310.753 30.9562 290.902C30.7913 290.616 -7.89726 277.353 -54.1959 272.672C-96.9353 268.22 -155.453 270.403 -190.49 305.672C-222.803 338.028 -196.321 384.932 -162.626 444.614L-162.571 444.711C-128.604 504.787 -86.9252 578.516 -100.406 656.735C-89.801 575.417 -132.898 499.29 -168.209 436.924L-168.65 436.144C-204.142 373.359 -232.17 323.777 -198.371 290.043C-161.154 252.944 -99.2421 250.705 -53.6794 255.43ZM-189.485 306.424C-136.734 253.694 -30.4835 275.163 12.3075 286.629C21.4883 289.089 27.7799 291.109 29.8947 291.788C30.322 291.925 30.5788 292.007 30.6545 292.028C118.652 329.366 161.768 395.473 162.19 494.797C162.6 577.931 132.495 666.884 110.475 731.949L110.464 731.983C104.872 748.347 99.807 763.646 95.8565 776.588C79.4506 830.609 26.7035 842.787 -16.0875 831.321L-17.4388 830.959C-70.1674 816.155 -117.778 765.817 -105.692 688.509C-107.985 715.628 -102.336 740.728 -89.0129 762.055C-73.9776 786.119 -49.1727 804.352 -21.1414 812.346L-19.7901 812.708C20.7488 823.57 70.8816 812.14 86.3381 760.762C88.8746 751.951 92.2087 742.074 95.7657 731.537L95.7659 731.536L95.7661 731.536L95.7715 731.52L95.7814 731.491C97.105 727.57 98.4593 723.557 99.8149 719.474C120.344 659.075 148.439 575.841 147.992 498.235C147.743 455.925 138.805 419.011 121.269 388.967C100.99 353.842 68.416 326.768 24.6121 308.272C24.5727 308.261 24.4132 308.21 24.1391 308.121C15.018 305.172 -121.011 261.189 -181.829 321.994C-212.144 352.252 -187.43 396.048 -155.956 451.552C-125.941 504.726 -89.3149 569.618 -96.7995 638.598C-91.8844 566.722 -130.033 499.249 -161.368 443.826L-161.428 443.72C-194.791 384.614 -221.104 337.999 -189.485 306.424ZM-180.658 323.032C-131.532 273.916 -32.8341 293.845 7.02908 304.526C15.6015 306.823 21.3156 308.685 23.2875 309.327L23.2902 309.328C23.6998 309.461 23.9473 309.542 24.0248 309.563C105.793 344.025 145.76 405.667 146.355 498.038C146.863 575.419 118.827 658.428 98.2987 718.827C97.7317 720.535 97.1671 722.234 96.6062 723.922L96.5732 724.02L96.5625 724.053C92.188 737.215 88.0396 749.698 84.7615 760.339C69.6069 810.591 20.4352 822.038 -19.428 811.356L-20.7793 810.994C-71.3621 796.743 -116.999 747.319 -101.544 671.296C-105.194 698.825 -100.286 724.308 -86.8153 745.746C-72.8295 768.322 -50.0957 785.276 -24.031 792.501L-22.905 792.803C14.7061 802.881 61.0383 792.122 75.304 744.287C78.3429 734.525 82.1912 723.126 86.2613 711.069L86.2625 711.066L86.2636 711.062L87.1642 708.394C87.4408 707.575 87.7182 706.752 87.9963 705.928C107.093 649.973 133.213 573.21 132.729 501.146C132.431 461.719 124.182 427.645 107.964 399.885C89.1088 367.556 58.9354 342.332 18.389 325.191C18.3483 325.18 18.1887 325.129 17.9158 325.041L17.9155 325.041C9.14502 322.207 -116.53 281.607 -172.821 337.925C-200.835 365.903 -177.935 406.558 -148.769 458.065L-148.485 458.569C-119.24 510.471 -83.405 574.068 -95.4621 641.674C-86.4326 571.35 -123.72 505.301 -154.239 451.24L-154.528 450.728L-154.594 450.611C-185.482 395.793 -209.975 352.324 -180.658 323.032ZM1.75111 322.423C-35.1843 312.526 -126.554 294.078 -171.771 339.413C-198.869 366.671 -176.298 406.755 -147.402 457.465C-120.17 505.499 -87.231 563.921 -91.926 626.443C-84.5002 567.099 -116.104 511.263 -141.997 465.515L-141.998 465.514L-142.214 465.131L-142.359 464.875C-168.984 417.773 -190.172 380.288 -164.22 354.472C-112.366 302.713 3.73107 340.14 11.3711 342.603L11.3759 342.604C11.5982 342.676 11.7276 342.718 11.7596 342.726C81.1734 371.947 116.508 426.555 116.835 504.611C117.189 570.52 93.447 640.727 76.0304 692.23L75.7712 692.996C71.3702 705.818 67.3754 718.024 64.149 728.263C51.1345 772.33 8.43798 782.132 -26.0201 772.899L-27.1461 772.597C-51.1839 765.915 -72.0717 750.179 -84.9034 729.602C-96.4379 711.142 -101.162 689.533 -99.0988 666.079C-110.842 733.979 -69.6039 778.145 -23.6086 790.925C13.4313 801.333 59.6429 791.024 73.8923 744.15C77.3601 733.01 81.6566 719.678 86.5846 705.791L87.1715 704.049C105.993 648.191 131.573 572.273 131.197 501.459C130.654 416.103 93.6099 358.865 17.9063 326.993C17.7638 326.955 17.3838 326.842 16.7842 326.665L16.7835 326.665C14.5383 326 9.21528 324.423 1.75111 322.423ZM-163.11 355.735C-121.291 314.076 -37.4744 330.982 -3.46676 340.095C3.694 342.013 8.6789 343.67 10.5204 344.282L10.5211 344.282C10.938 344.421 11.1936 344.506 11.2768 344.528C80.8554 374.034 114.871 426.357 115.302 504.925C115.777 570.385 92.0357 640.589 74.6192 692.092L74.619 692.092L74.3595 692.86C74.0253 693.833 73.6921 694.803 73.3605 695.768L73.3106 695.913L73.3016 695.94L73.3013 695.94C69.2873 707.623 65.4971 718.655 62.7373 728.126C49.8597 770.781 8.18478 780.374 -25.5976 771.322L-26.7237 771.02C-69.4288 758.888 -107.853 717.718 -95.9609 654.43C-101.359 707.541 -67.5159 742.277 -30.2615 752.692L-29.3606 752.934C2.16962 761.382 41.2905 752.312 53.7296 712.195C55.5959 705.839 57.992 698.742 60.5459 691.177C61.7686 687.556 63.0275 683.827 64.2817 680.021C80.2284 633.119 101.904 568.441 101.676 508.032C101.236 436.704 68.9897 386.786 5.64053 360.156C5.60698 360.147 5.47592 360.105 5.25197 360.033C-2.03831 357.686 -107.781 323.641 -155.108 370.914C-178.762 394.451 -159.546 428.514 -135.227 471.623L-135.089 471.869L-134.509 472.902C-110.467 515.769 -81.044 568.23 -90.0385 623.76C-84.0344 564.905 -115.134 509.625 -140.787 464.307L-140.932 464.049C-167.227 417.519 -188.086 380.606 -163.11 355.735ZM-8.52008 358.052C-39.3746 349.784 -116.089 334.298 -154.059 372.402C-176.736 394.996 -157.849 428.486 -133.861 471.022L-133.721 471.269C-111.061 511.375 -83.7577 559.769 -87.0512 611.538C-81.1735 562.706 -107.11 516.642 -128.533 478.935C-149.846 441.361 -168.19 408.927 -146.732 387.4C-103.804 344.487 -7.76018 375.517 -1.52664 377.531L-1.52552 377.532L-1.50583 377.538C-1.33688 377.592 -1.23847 377.624 -1.21398 377.631C56.0102 401.895 85.2285 446.898 85.7817 511.498C86.1065 566.139 66.3462 624.571 51.7713 667.254C51.5396 667.944 51.3086 668.63 51.0786 669.314L50.6213 670.673C47.4768 680.016 44.5357 688.755 42.2892 696.336C31.4472 732.294 -3.87308 740.693 -32.4755 733.029L-33.3764 732.788C-66.5327 723.479 -96.669 693.153 -93.2803 646.702C-103.033 703.39 -68.3375 740.345 -29.8391 751.116C1.12006 759.894 39.8951 751.214 51.6423 711.877C53.5086 705.521 55.9047 698.424 58.4586 690.859C59.6813 687.238 60.9402 683.509 62.1944 679.703C78.1411 632.801 99.9814 568.409 99.6932 508.225C99.3136 436.672 68.2213 388.753 4.87219 362.123C4.25688 361.717 -0.637534 360.164 -8.52008 358.052ZM-145.111 388.559C-110.826 354.295 -41.6645 368.24 -13.7377 375.723C-8.22019 377.202 -4.32211 378.388 -2.49458 378.944C-2.26087 379.015 -2.06102 379.076 -1.89598 379.125C-1.66588 379.195 -1.50343 379.243 -1.41123 379.268C129.16 434.289 80.0525 579.724 50.5407 666.442C50.1543 667.591 49.77 668.733 49.3887 669.866L49.3873 669.87C46.2441 679.21 43.3043 687.945 41.0586 695.523C30.458 730.581 -4.00562 738.485 -31.7072 731.063L-32.608 730.821C-66.3747 721.331 -97.0063 689.53 -90.5068 640.616C-91.1616 679.53 -65.1322 704.802 -36.7168 712.823L-35.8159 713.064C-10.1414 719.944 21.7684 712.562 31.1944 680.086C31.9108 677.929 32.6569 675.66 33.4337 673.298L33.4409 673.276L33.4439 673.267C35.3775 667.387 37.5015 660.929 39.8316 654.158C52.7491 615.859 70.3693 563.612 70.1726 514.799C69.9567 457.048 43.8266 416.735 -7.55811 395.001C-7.58443 394.994 -7.68671 394.961 -7.86143 394.904L-7.8661 394.903L-7.86937 394.902L-7.87105 394.901C-13.7594 393.002 -99.445 365.356 -137.845 403.782C-157.228 422.969 -140.697 452.261 -121.693 485.838C-103.89 517.234 -82.451 555.165 -84.0497 595.728C-84.5081 552.338 -107.293 511.917 -126.318 478.166L-126.535 477.781C-148.341 439.351 -165.532 408.916 -145.111 388.559ZM-19.0161 393.62C-44.0151 386.922 -105.849 374.457 -136.51 405.105C-154.691 423.407 -139.478 450.416 -119.98 484.848L-119.479 485.739C-101.254 518.158 -79.3332 557.15 -82.1347 598.951C-76.3601 559.781 -97.279 522.803 -114.362 492.605L-114.507 492.349C-131.368 462.486 -145.755 436.905 -128.838 419.713C-94.961 385.771 -19.6179 410.042 -14.0948 411.821L-13.9974 411.852C-13.9099 411.88 -13.8476 411.9 -13.8113 411.911C-13.7976 411.915 -13.7877 411.918 -13.7814 411.92C31.5386 431.064 54.5804 466.687 54.9096 517.709C55.2021 560.579 39.5661 606.604 28.1528 640.199L28.1527 640.199L28.0127 640.611C26.8674 644.133 25.7145 647.527 24.6117 650.773L24.6116 650.774L24.6112 650.775C23.0724 655.304 21.6314 659.546 20.4456 663.447C11.9248 692.544 -16.1239 699.029 -38.8707 692.934L-39.5464 692.753C-65.4335 685.398 -89.0055 661.941 -86.9313 625.954C-95.2546 672.156 -67.285 702.243 -36.0088 711.082L-35.3332 711.263C-10.5594 717.901 20.0432 710.893 29.3927 679.604C31.566 672.352 34.5347 663.775 37.592 654.941L38.0299 653.675C64.3918 576.011 108.314 446.325 -8.32641 396.967C-8.4913 396.682 -12.4848 395.37 -19.0161 393.62ZM-127.563 421.262C-100.587 394.454 -46.3052 405.378 -24.234 411.292C-21.9493 411.904 -20.0082 412.464 -18.4891 412.902C-16.2645 413.544 -14.9446 413.924 -14.7749 413.826C87.9396 457.021 49.2847 571.201 26.1239 639.613L26.0461 639.843C23.0772 648.22 20.4543 656.207 18.4186 662.904C9.97434 690.815 -17.2176 696.805 -39.2285 690.666C-66.8458 683.036 -91.5238 656.262 -83.9161 615.285C-85.4285 646.354 -65.1988 666.602 -42.6615 672.849L-41.9858 673.03C-22.392 678.28 2.02088 672.752 9.45545 647.709C10.8952 643.058 12.6355 637.867 14.5286 632.219L14.5311 632.211C14.9964 630.823 15.4709 629.408 15.9525 627.966C25.9453 598.78 39.2852 558.904 39.18 521.46C38.9628 477.228 18.7842 446.234 -20.4712 429.68C-23.3387 428.671 -89.982 406.227 -120.297 436.485C-135.053 451.25 -122.651 473.292 -108.206 498.965L-107.952 499.417C-93.3054 525.086 -75.433 556.615 -79.6173 589.959C-77.8708 553.543 -97.1 519.434 -113.019 491.3C-130.044 461.15 -143.443 437.284 -127.563 421.262ZM-29.287 429.249C-48.2051 424.18 -95.3841 414.677 -118.512 437.929C-132.316 451.611 -120.506 472.397 -105.728 498.323L-105.587 498.572C-92.6345 521.534 -77.2222 548.856 -76.6672 578.233C-75.1555 551.88 -89.153 526.946 -100.677 506.42L-100.826 506.154C-113.296 484.226 -123.952 465.439 -111.125 452.702C-86.7396 428.332 -34.7531 444.356 -27.3337 446.643C-26.9295 446.768 -26.6576 446.851 -26.5296 446.886C50.2398 479.284 21.4962 564.035 4.29845 614.705C2.58774 619.649 1.09807 624.344 -0.193197 628.414L-0.195573 628.421L-0.196388 628.424C-0.519376 629.442 -0.829951 630.421 -1.12846 631.355C-7.82268 652.735 -28.4349 657.591 -45.3261 653.065L-45.7765 652.945C-63.9301 647.881 -80.4768 631.919 -80.8005 607.619C-86.467 641.96 -65.2574 664.396 -41.8931 670.883L-41.2174 671.064C-22.5245 676.072 0.6416 670.693 7.93929 647.061C9.46468 642.134 11.3709 636.437 13.4084 630.348L13.4088 630.346L13.4308 630.28C13.7826 629.229 14.1383 628.166 14.4967 627.093L14.5747 626.862C34.5252 567.727 67.8292 469.013 -20.7288 431.543L-29.287 429.249ZM-109.85 454.251C-90.1214 434.674 -50.4952 442.637 -34.5049 446.921C-31.2243 447.8 -28.8681 448.59 -27.9693 448.891C-27.7574 448.962 -27.6265 449.006 -27.5835 449.017C47.2193 480.647 19.0027 564.332 2.04629 614.101C0.253542 619.283 -1.2965 624.19 -2.66544 628.525C-2.93059 629.364 -3.18895 630.182 -3.44096 630.977C-9.5479 651.065 -29.3035 655.428 -45.2334 650.918C-65.3118 645.308 -83.2131 625.869 -77.6832 596.219C-77.0383 615.384 -64.0315 628.787 -48.8916 633.04L-48.4412 633.161C-34.703 636.842 -17.6663 632.717 -12.2835 615.331C-11.6131 612.829 -10.702 610.115 -9.72352 607.201L-9.72333 607.2L-9.72319 607.199C-9.11643 605.392 -8.48371 603.507 -7.86631 601.548L-7.86324 601.539C6.18502 559.921 29.5701 490.642 -33.324 464.135C-33.4288 464.107 -33.6516 464.038 -33.9828 463.936C-40.0617 462.061 -82.6673 448.918 -102.689 468.963C-113.215 479.419 -104.372 495.065 -94.2106 512.996C-84.6521 529.839 -73.0175 550.527 -74.4591 572.273C-75.0946 547.5 -88.1303 524.449 -99.1125 505.165L-99.3345 504.768C-111.638 482.804 -121.285 465.584 -109.85 454.251ZM-100.963 470.633C-85.1442 454.836 -52.8456 461.318 -39.7831 464.818L-39.7817 464.818C-36.4043 465.723 -34.3778 466.266 -34.213 466.552C26.7191 492.293 3.68806 560.228 -10.1185 600.945C-11.7317 606.064 -13.2242 610.734 -14.5357 614.727C-19.3312 630.822 -35.0004 634.348 -47.8377 630.909L-48.2881 630.788C-65.3442 625.976 -80.5531 608.866 -73.778 582.68C-67.0848 556.818 -80.5405 532.733 -91.5158 513.087C-91.7489 512.67 -91.9809 512.255 -92.2116 511.841L-92.8021 510.78C-102.462 493.417 -110.042 479.793 -100.963 470.633Z" fill="url(#paint0_linear_5302_2)"/>
<path opacity="0.33" fill-rule="evenodd" clip-rule="evenodd" d="M1420.76 46.4008L1423.23 47.0647C1448.85 54.1694 1472.75 65.883 1494.59 81.6344C1517.45 98.1381 1536.39 118.422 1550.87 141.854C1583.97 194.898 1591.87 260.016 1573.49 330.406C1535.27 477.558 1613.66 616.608 1676.88 728.749L1677.46 729.762C1706.19 780.187 1733.21 827.981 1745.19 868.848C1758.62 914.208 1752.86 947.424 1726.8 973.512C1699.48 1000.71 1662.24 1018.97 1615.49 1027.69C1578.32 1034.87 1535.32 1035.9 1487.39 1031.02C1410.13 1023.13 1345.38 1001.68 1338.05 999.254C1337.64 999.12 1337.41 999.044 1337.37 999.031C1294.63 981.062 1257.23 958.488 1226.4 932.122C1197.51 907.486 1173.34 878.8 1154.87 846.817L1154.87 846.815C1153.72 844.816 1152.56 842.818 1151.63 840.88C1187.32 904.996 1246.23 959.887 1337.55 998.356C1337.61 998.373 1337.89 998.465 1338.38 998.624C1346.43 1001.25 1410.74 1022.28 1487.34 1030.29C1562.49 1038.11 1664.86 1034.4 1726.47 972.941C1752.19 947.243 1758.17 914.087 1744.68 868.953C1732.47 828.025 1705.68 780.291 1677.17 729.927C1645.2 673.566 1609.23 609.615 1586.38 542.661C1561.55 469.649 1556.38 403.422 1570.53 340.603C1534.71 481.636 1610.03 614.956 1670.69 722.326L1670.69 722.326L1670.9 722.695L1672.38 725.321L1673.39 727.132C1699.77 774.076 1724.64 818.34 1735.95 856.476C1748.62 900.183 1742.94 932.212 1718.14 957.19C1691.85 983.218 1655.98 1000.88 1611.28 1009.18C1575.42 1015.99 1534.11 1016.99 1488.04 1012.37C1413.46 1004.59 1350.67 983.933 1344.44 981.885L1344.44 981.884C1344.14 981.785 1343.97 981.73 1343.94 981.721C1302.94 964.46 1266.99 942.759 1237.33 917.431C1209.62 893.833 1186.39 866.124 1168.52 835.508C1162.26 824.657 1156.56 813.475 1151.5 801.739C1183.69 875.298 1243.25 938.571 1344.12 981.046C1344.18 981.063 1344.46 981.154 1344.94 981.311C1352.79 983.869 1414.54 1004 1487.99 1011.63C1560.09 1019.12 1658.56 1015.58 1717.58 956.559C1742.32 931.806 1747.95 900.002 1735.16 856.745C1723.49 817.41 1697.62 771.615 1670.27 723.25C1639.62 669.173 1604.91 607.732 1583.09 543.228C1560.41 476.191 1554.73 415.093 1566.06 357.25C1536.34 489.743 1607.11 614.882 1664.29 715.854C1690.65 762.506 1715.36 806.302 1726.72 844.104C1739.13 886.053 1733.81 916.732 1709.82 940.479C1684.74 965.622 1650.3 982.463 1607.35 990.507C1573.02 996.999 1533.19 997.913 1489.26 993.385C1417.64 985.927 1357.63 966.23 1351.57 964.243L1351.57 964.243C1351.28 964.146 1351.11 964.091 1351.08 964.082C1337.33 958.262 1324.22 951.957 1311.75 945.174C1324 951.77 1336.9 957.935 1350.46 963.676C1350.57 963.705 1350.95 963.825 1351.59 964.027C1355.03 965.109 1365.94 968.548 1382.26 972.921C1407.71 979.74 1446.13 988.587 1488.65 992.979C1557.7 1000.14 1652.04 996.688 1708.7 940.177C1732.46 916.37 1737.72 885.917 1725.41 844.478C1714.63 807.922 1690.89 765.63 1665.66 720.672L1665.66 720.672L1664.55 718.679L1663.2 716.288L1661.44 713.157C1632.61 661.922 1600.22 604.387 1579.57 543.735C1557.48 478.616 1552.34 419.656 1563.55 363.549C1533.78 491.209 1602 611.953 1657.16 709.116L1658.65 711.781L1659.56 713.396L1659.62 713.501C1683.7 756.47 1706.44 797.039 1716.68 832.001C1728.62 872.133 1723.43 901.399 1700.37 924.427C1676.32 948.399 1643.24 964.641 1602.05 972.432C1569.26 978.611 1531.06 979.722 1488.83 975.166C1419.87 968.036 1361.94 948.749 1356.97 947.095C1356.76 947.025 1356.64 946.987 1356.62 946.982C1283.79 916.12 1229.52 870.922 1195.6 812.831C1166.52 762.797 1151.55 701.574 1151.21 630.757C1150.45 501.168 1197.4 362.88 1231.74 261.765C1232.82 258.529 1233.9 255.319 1234.96 252.14L1234.96 252.136L1234.97 252.133L1234.97 252.129L1234.97 252.125C1242.22 230.494 1249.01 210.258 1254.33 192.747C1266 154.597 1290.46 126.389 1325.1 111.531C1356.14 98.3663 1393.33 96.5032 1430.27 106.4L1432.52 107.003C1478.96 120.171 1520.07 150.499 1545.02 190.736C1571.64 233.544 1579.86 285.08 1568.84 340.907C1601.08 203.171 1519.71 113.208 1429 87.7145L1426.75 87.111C1374.17 73.0242 1312.32 80.8135 1273.54 123.17C1285.72 109.643 1300.68 98.9802 1318.14 91.5624C1349.59 77.782 1388.42 76.1161 1427.15 86.4957L1429.63 87.1595C1478.32 100.93 1521.22 132.703 1547.22 174.428C1575.32 219.463 1583.56 273.87 1571.82 332.546C1605.99 188.47 1520.98 94.4788 1426.11 67.8699L1423.86 67.2664C1351.11 47.7745 1261.06 68.5442 1233.27 160.55C1227.39 180.084 1219.7 202.785 1211.51 226.947L1211.51 226.948L1211.51 226.949C1210.53 229.864 1209.53 232.799 1208.53 235.753C1172.8 340.897 1126.04 479.243 1120.86 611.416C1125.81 478.921 1172.62 340.499 1207.47 237.434L1207.47 237.434L1207.47 237.432L1208.08 235.633C1209.07 232.706 1210.06 229.798 1211.04 226.91L1211.06 226.832C1219.25 202.668 1226.94 179.965 1232.82 160.43C1245.46 118.676 1271.99 88.1276 1309.81 72.192C1343.2 57.4827 1383.56 55.5032 1423.87 66.3052L1426.35 66.9691C1477.07 81.283 1521.75 114.499 1548.96 157.998C1579.24 206.671 1587.54 265.953 1573.12 329.977C1612.95 176.249 1523.36 75.8225 1423.05 47.7403L1420.58 47.0765C1344.9 26.8001 1251.22 48.5267 1222.18 144.301C1215.34 167.093 1206.18 194.087 1196.37 222.597L1196 223.686L1196 223.686C1160.04 330.004 1113.2 468.478 1105.54 602.106C1112.97 467.786 1159.84 328.764 1195.07 224.249L1195.69 222.416C1197.01 218.496 1198.32 214.605 1199.61 210.752C1207.75 186.518 1215.41 163.732 1221.5 144.12C1234.56 100.79 1262.35 69.1317 1301.66 52.1465C1336.59 37.1236 1378.87 35.1764 1420.76 46.4008ZM1120.41 640.132C1120.33 630.603 1120.48 621.026 1120.86 611.416C1120.54 620.133 1120.39 628.825 1120.44 637.479C1120.43 638.363 1120.42 639.247 1120.41 640.132ZM1120.84 657.621C1120.6 651.812 1120.46 645.981 1120.41 640.132C1120.36 645.988 1120.49 651.866 1120.84 657.621ZM1243.97 176.454C1250.59 154.675 1260.82 137.063 1273.54 123.17C1260.44 137.721 1250.56 155.585 1244.26 176.289C1237.91 197.279 1229.58 222.081 1220.59 248.4C1184.83 353.959 1135.96 498.493 1136.62 633.849C1137.08 707.836 1152.57 771.612 1182.97 823.931C1211.93 873.816 1255.2 914.413 1311.75 945.174C1194.91 882.271 1137.36 780.211 1136.4 633.789C1135.67 498.658 1184.54 354.124 1220.31 248.564C1229.29 222.246 1237.63 197.444 1243.97 176.454ZM1489.08 974.265C1448.42 970.131 1411.58 961.706 1387.25 955.189C1375.36 952.003 1366.47 949.219 1361.56 947.684C1358.85 946.835 1357.36 946.368 1357.26 946.427C1220.23 888.468 1153.25 785.31 1152.4 630.834C1151.8 501.53 1198.53 363.182 1232.86 262.067C1233.68 259.624 1234.5 257.191 1235.31 254.772L1235.31 254.769C1242.82 232.407 1249.95 211.176 1255.46 193.049C1280.97 108.64 1363.59 89.4987 1430.25 107.361L1432.28 107.904C1517.88 132.011 1594.54 215.698 1567.47 344.085C1576.12 293.297 1567.91 246.293 1543.56 207C1519.54 168.702 1480.33 139.367 1435.86 126.968L1433.61 126.365C1398.25 116.89 1362.53 118.665 1333.53 131.412C1300.32 145.446 1276.96 172.258 1265.94 208.892C1260.85 225.531 1254.36 244.697 1247.41 265.228L1247.41 265.229L1247.41 265.23L1247.41 265.231C1246.35 268.376 1245.27 271.552 1244.19 274.756L1243.85 275.747L1243.85 275.748C1211.26 372.168 1166.7 504.014 1167.33 627.352C1167.39 635.422 1167.65 643.365 1168.1 651.178C1174.46 771.313 1226.03 856.695 1324.79 910.752C1337.06 917.551 1350.03 923.826 1363.7 929.567C1363.74 929.576 1363.91 929.633 1364.21 929.732C1370.04 931.655 1425 949.778 1490.22 956.468C1530.59 960.767 1566.8 959.849 1598.35 953.818C1637.72 946.506 1669.15 931.028 1692.22 908.001C1714.02 886.083 1719.13 858.003 1707.67 819.69C1697.56 785.641 1675.34 746.245 1651.73 704.373L1650.54 702.274C1599.08 611.555 1535.73 499.633 1559.35 380.827C1550.79 431.78 1556.36 485.577 1576.28 544.301C1596.38 603.517 1628.13 659.818 1656.3 709.611L1657.46 711.656C1682.24 755.542 1705.46 796.674 1715.89 832.271C1727.66 872.117 1722.53 901.158 1699.81 923.795C1645.74 977.861 1555.3 981.148 1489.08 974.265ZM1363.09 929.161C1349.62 923.488 1336.85 917.354 1324.79 910.752C1274.37 882.809 1235.86 846.031 1209.82 801.193C1185.38 759.153 1171.43 708.697 1168.1 651.178C1167.7 643.547 1167.47 635.775 1167.43 627.863C1166.74 504.75 1211.31 372.904 1243.9 276.484L1243.9 276.484L1244.23 275.492C1252.61 251.426 1260.18 228.591 1266.04 209.403C1290.31 128.762 1369.28 110.578 1433.02 127.656L1435.05 128.199C1516.66 151.001 1589.77 230.835 1564.3 353.161C1572.39 304.945 1564.69 260.238 1541.42 223.083C1518.62 186.559 1481.19 158.668 1438.75 146.812L1436.72 146.269C1402.94 137.217 1369.14 139.024 1340.61 150.931C1308.99 164.426 1286.67 190.067 1276.13 224.9C1270.45 243.412 1263.24 264.896 1255.39 287.897L1255.39 287.905C1224.2 379.966 1181.47 506.105 1182.2 624.095C1182.76 688.695 1196.3 744.463 1222.74 789.929C1253.63 843.104 1302.93 884.316 1369.54 912.302C1369.56 912.307 1369.63 912.33 1369.74 912.368C1369.82 912.393 1369.92 912.426 1370.04 912.464C1375.68 914.322 1427.87 931.492 1490.14 937.859C1528.42 941.839 1563.16 941.01 1593.18 935.293C1630.57 928.173 1660.56 913.52 1682.59 891.663C1703.64 870.751 1708.17 843.962 1697.47 807.301C1687.9 774.836 1666.82 737.422 1644.35 697.539L1643.19 695.477L1643.06 695.235C1594.22 608.745 1534 502.108 1556.41 389.019C1548.36 437.571 1553.8 488.959 1572.71 545.033C1591.72 601.245 1621.96 654.739 1648.71 702.043L1648.71 702.044L1648.71 702.044L1648.71 702.045L1648.71 702.046L1649.18 702.874C1673.29 745.302 1695.8 785.611 1706.14 820.003C1717.43 858.031 1712.67 885.721 1690.92 907.413C1639.21 958.974 1552.91 962.16 1489.73 955.611C1451 951.51 1415.73 943.507 1392.53 937.292C1384.15 935.046 1377.3 933.045 1372.31 931.588L1372.31 931.588L1372.31 931.588L1372.31 931.588L1372.31 931.588L1372.31 931.588L1372.31 931.588L1372.31 931.587L1372.31 931.587C1366.84 929.992 1363.62 929.052 1363.09 929.161ZM1397.52 919.56C1419.82 925.534 1453.29 933.054 1490.38 936.958C1550.74 943.233 1632.91 940.147 1682.32 890.867C1703.03 870.345 1707.49 843.781 1696.9 807.631C1687.1 774.832 1665.52 736.462 1642.56 696.032L1642.07 695.165L1642.07 695.165L1642.07 695.165C1616.65 650.15 1587.74 598.957 1569.7 545.435C1549.84 486.722 1545.7 433.73 1556.9 383.302C1556.89 383.336 1556.89 383.371 1556.88 383.405C1527.66 496.031 1587.91 602.696 1636.41 688.35L1637.58 690.426C1658.9 728.31 1678.98 764.001 1688.01 794.869C1698.23 829.712 1693.84 855.089 1673.99 875.117C1626.82 922.342 1548.33 925.207 1490.57 919.145C1431 913.112 1380.92 896.37 1376.29 894.822C1376.08 894.751 1375.96 894.712 1375.94 894.707C1312.59 868.077 1265.63 828.94 1236.45 778.395C1211.39 734.989 1198.31 682 1198.1 620.63C1197.5 508.464 1238.09 388.507 1267.84 300.889C1268.94 297.599 1270.03 294.34 1271.11 291.118L1271.11 291.111C1277.22 272.848 1282.94 255.762 1287.51 240.985C1297.63 207.729 1318.85 183.482 1348.88 170.526C1375.53 159.324 1407.86 157.605 1439.84 166.174L1441.86 166.717C1482.28 178.03 1517.92 204.477 1539.51 239.227C1563.49 277.639 1570.1 324.373 1558.94 374.817C1558.96 374.732 1558.98 374.646 1559.01 374.561C1591.11 251.124 1519.06 170.504 1438.73 147.774L1436.71 147.23C1375.9 130.937 1300.78 148.225 1277.54 225.037C1271.92 243.324 1264.65 265.033 1256.8 288.034L1256.8 288.042C1225.61 380.103 1182.89 506.242 1183.45 623.947C1184.36 764.68 1245.33 858.745 1370 911.461C1370.07 911.478 1370.33 911.563 1370.78 911.708L1370.78 911.709C1373.52 912.593 1383.21 915.725 1397.52 919.56ZM1491.04 918.305C1455.8 914.658 1423.97 907.336 1402.8 901.663C1393.28 899.111 1385.98 896.898 1381.52 895.547L1381.52 895.547C1378.49 894.629 1376.78 894.11 1376.57 894.152C1257.97 844.026 1200.08 754.651 1199.22 620.932C1198.62 508.766 1239.15 389.034 1268.91 301.416C1269.5 299.639 1270.09 297.871 1270.68 296.113C1271.17 294.659 1271.65 293.213 1272.13 291.773L1272.17 291.65L1272.17 291.641C1278.29 273.377 1284 256.289 1288.58 241.512C1310.79 168.529 1382.11 151.912 1439.99 167.421L1441.79 167.904C1517.37 189.108 1584.87 264.142 1557.26 378.971C1566.17 333.139 1559.35 290.672 1537.54 255.596C1517.1 222.845 1483.31 197.617 1444.92 186.847L1443.12 186.364C1412.71 178.217 1381.92 179.623 1356.69 190.001C1328.04 202.358 1308.08 225.494 1298.44 256.949C1293.91 272.189 1287.85 290.091 1281.48 308.907L1281.48 308.915L1280.59 311.551L1279.84 313.76L1279.26 315.473C1251.28 398.332 1213.07 511.436 1213.77 617.104C1214.09 675.365 1226.19 725.68 1250.16 766.862C1277.86 814.837 1322.42 852.123 1382.51 877.398C1382.53 877.403 1382.64 877.44 1382.84 877.506C1387.26 878.962 1434.64 894.564 1491.22 900.492C1545.71 906.159 1620.29 903.455 1665.1 858.735C1683.92 839.878 1688.23 815.687 1678.49 782.662C1670.17 754.004 1651.65 721.052 1631.95 686.013L1631.95 686.012L1631.93 685.98L1630.77 683.904C1630.35 683.161 1629.93 682.418 1629.51 681.673C1584.4 601.909 1528.39 502.643 1552.89 397.793C1543.91 443.907 1548.36 492.637 1566.41 546.002C1583.82 597.254 1611.28 646.13 1635.72 689.13C1680.76 768.787 1716.29 831.656 1673.44 874.485C1626.55 921.545 1548.34 924.246 1491.04 918.305ZM1407.8 883.931C1427.84 889.302 1458.1 896.202 1491.46 899.591C1545.72 905.198 1620.02 902.658 1664.55 858.104C1705.11 817.554 1671.38 757.827 1628.59 682.393C1586.32 607.652 1534.55 515.907 1547.91 418.362C1531.45 513.07 1581.87 602.538 1622.84 675.056C1642.5 709.775 1661.01 742.494 1669.19 770.515C1678.45 801.722 1674.44 824.787 1656.38 842.638C1614.16 884.913 1543.47 887.457 1491.82 882.063C1435.92 876.259 1389.24 860.373 1388.85 860.027C1332.02 836.109 1290.02 800.958 1263.58 755.493C1240.94 716.595 1229.35 668.835 1229.09 613.968C1228.58 513.535 1264.85 406.421 1291.43 327.932L1291.72 327.081C1298.38 307.624 1304.58 289.007 1309.25 273.362C1318.24 243.424 1337.32 221.744 1364.33 210.151C1388.54 199.981 1417.41 198.544 1446.23 206.268L1448.03 206.751C1484.4 216.978 1516.18 240.701 1535.79 272.025C1555 302.799 1561.82 339.507 1556.08 379.069C1576.69 275.257 1514.21 207.548 1444.62 187.973L1442.82 187.49C1388.09 172.826 1320.41 188.486 1299.45 257.701C1295.08 272.416 1289.32 289.436 1283.16 307.66L1283.12 307.772C1282.56 309.433 1282 311.103 1281.43 312.782L1280.85 314.512L1280.23 316.329C1252.25 399.176 1214.14 512.007 1214.83 617.631C1215.58 744.562 1270.6 829.307 1382.92 876.782C1383.12 876.74 1384.78 877.244 1387.67 878.127L1387.67 878.127L1387.67 878.128C1391.92 879.421 1398.83 881.529 1407.8 883.931ZM1491.89 880.877C1460.45 877.52 1431.77 871.043 1412.85 865.974C1398.66 862.172 1389.77 859.307 1389.61 859.022C1283.13 814.077 1231.2 734.021 1230.5 614.105C1229.93 513.897 1266.2 406.784 1292.78 328.295L1293.07 327.443C1294.89 321.919 1296.71 316.471 1298.49 311.145C1303 297.654 1307.25 284.941 1310.6 273.724C1330.31 208.278 1394.36 193.575 1446.16 207.455L1447.73 207.877C1513.48 226.421 1572.61 290.402 1553.01 388.837C1558.36 351.526 1551.88 317.129 1533.88 288.169C1515.48 258.619 1485.26 236.279 1451.15 226.656L1449.57 226.233C1422.32 218.931 1394.93 220.281 1372.25 230.136C1346.9 240.965 1328.79 261.7 1320.29 289.837C1317.12 300.382 1313.08 312.302 1308.8 324.965C1307.09 330.006 1305.35 335.165 1303.6 340.402C1278.43 414.524 1244.03 515.864 1244.64 610.893C1244.95 662.876 1255.85 707.797 1277.18 744.41C1302.13 787.305 1341.79 820.38 1395.36 842.943C1395.38 842.949 1395.5 842.986 1395.7 843.053L1395.71 843.055C1399.92 844.452 1442.23 858.477 1492.41 863.635C1541.24 868.755 1607.8 866.311 1647.72 826.317C1684.59 789.608 1654.33 735.878 1616 668.154C1577.12 599.573 1529.11 514.855 1545.44 425.039C1532.48 517.486 1581.58 604.389 1621.69 675.375L1621.75 675.49C1662.24 746.926 1693.92 803.452 1655.66 841.721C1613.5 883.771 1543.55 886.271 1491.89 880.877ZM1418.07 848.302C1435.86 853.069 1462.9 859.35 1492.77 862.284C1541.16 867.283 1607.2 864.944 1647 825.4C1683.01 789.479 1653.41 736.932 1615.81 670.171L1615.08 668.874C1576.64 601.053 1529.51 517.629 1543.83 428.917C1526.35 514.677 1572.06 595.728 1609.16 661.252L1609.22 661.36C1645.22 725.035 1673.67 775.361 1639.06 809.996C1601.5 847.484 1539.07 849.828 1493.29 845.042C1446.07 840.208 1406.54 827.14 1402.49 825.804L1402.49 825.803L1402.49 825.803L1402.35 825.757L1402.26 825.727C1402.2 825.708 1402.17 825.697 1402.16 825.694C1351.84 804.486 1314.58 773.262 1291.05 733.162C1271.1 698.608 1260.67 656.466 1260.47 607.652C1260 518.84 1292.03 423.902 1315.46 354.468L1315.76 353.559C1316.12 352.495 1316.48 351.434 1316.84 350.376L1317.54 348.302L1317.57 348.215L1317.57 348.214C1322.74 332.924 1327.62 318.492 1331.38 306.086C1349.11 247.111 1406.52 233.767 1452.91 246.198L1454.49 246.621C1486.58 255.701 1515.01 276.597 1532.19 304.373C1549.85 332.663 1555.61 366.377 1549.55 402.825C1570.76 307.7 1514.09 245.675 1451.24 228.128L1449.66 227.705C1400.79 214.61 1340.55 228.642 1321.86 290.259C1317.43 305.003 1311.54 322.494 1305.18 340.825C1280 414.946 1245.61 516.286 1246.28 611.09C1246.86 724.217 1295.93 799.643 1396.12 841.938C1396.23 841.872 1397.6 842.297 1400.07 843.064C1403.78 844.213 1409.96 846.13 1418.07 848.302ZM1493.2 843.57C1465.25 840.668 1439.79 834.81 1423.12 830.345C1412.72 827.557 1405.42 825.261 1403.08 824.525L1403.08 824.525L1403.08 824.525L1403.07 824.524C1402.63 824.384 1402.37 824.301 1402.29 824.282C1308.4 784.639 1262.25 713.617 1261.72 607.504C1261.41 519.024 1293.35 424.365 1316.77 354.944L1316.77 354.944L1317.12 353.921C1317.39 353.11 1317.66 352.301 1317.94 351.494L1318.92 348.577L1318.92 348.576C1324.09 333.286 1328.98 318.854 1332.73 306.448C1350.16 248.599 1406.77 235.524 1452.49 247.775L1453.84 248.137C1511.85 264.373 1564.01 320.588 1547.17 407.05C1551.48 374.937 1545.66 345.322 1530.05 320.457C1514.03 294.679 1487.44 275.002 1457.38 266.465L1456.03 266.103C1412.56 254.456 1359.02 266.903 1342.6 321.885C1338.65 334.827 1333.58 350.126 1328.05 366.265L1327.52 367.831C1305.54 432.759 1275.63 521.135 1276.2 603.902C1276.51 649.606 1286.19 689.134 1304.82 721.403C1326.59 759.098 1361.5 788.247 1408.56 808.099C1408.73 808.384 1447.42 821.648 1493.71 826.329C1536.45 830.781 1594.97 828.597 1630.01 793.328C1662.32 760.972 1635.84 714.068 1602.14 654.386L1602.09 654.29C1568.12 594.213 1526.44 520.484 1539.93 442.264C1529.32 523.582 1572.42 599.71 1607.73 662.077L1608.17 662.857C1643.66 725.641 1671.69 775.224 1637.89 808.958C1600.67 846.057 1538.76 848.296 1493.2 843.57ZM1629 792.576C1576.25 845.307 1470 823.837 1427.21 812.372C1418.03 809.912 1411.74 807.892 1409.62 807.213L1409.62 807.212L1409.62 807.212L1409.62 807.212C1409.5 807.174 1409.4 807.14 1409.31 807.111C1409.2 807.076 1409.11 807.048 1409.04 807.025C1408.95 806.998 1408.89 806.981 1408.86 806.973C1320.87 769.635 1277.75 703.528 1277.33 604.203C1276.92 521.07 1307.02 432.117 1329.04 367.052L1329.05 367.018C1334.65 350.653 1339.71 335.354 1343.66 322.412C1360.07 268.392 1412.82 256.214 1455.61 267.68L1456.96 268.042C1509.69 282.845 1557.3 333.184 1545.21 410.493C1547.5 383.373 1541.85 358.273 1528.53 336.946C1513.5 312.882 1488.69 294.649 1460.66 286.655L1459.31 286.293C1418.77 275.43 1368.64 286.861 1353.18 338.239C1350.64 347.05 1347.31 356.927 1343.75 367.465C1342.42 371.4 1341.06 375.428 1339.7 379.526C1319.17 439.925 1291.08 523.159 1291.53 600.765C1291.78 643.076 1300.71 679.989 1318.25 710.034C1338.53 745.159 1371.1 772.232 1414.91 790.729C1414.92 790.732 1414.95 790.74 1414.99 790.753C1415.07 790.778 1415.2 790.821 1415.38 790.879C1424.5 793.828 1560.53 837.811 1621.35 777.007C1651.66 746.749 1626.95 702.952 1595.47 647.448C1565.46 594.274 1528.83 529.381 1536.32 460.4C1531.4 532.277 1569.55 599.751 1600.89 655.175L1600.95 655.28C1634.31 714.387 1660.62 761.002 1629 792.576ZM1620.18 775.969C1571.05 825.084 1472.35 805.156 1432.49 794.474C1423.92 792.177 1418.2 790.316 1416.23 789.673C1415.82 789.539 1415.57 789.458 1415.49 789.438C1333.73 754.976 1293.76 693.333 1293.16 600.963C1292.66 523.582 1320.69 440.573 1341.22 380.174C1341.8 378.422 1342.38 376.679 1342.96 374.948C1347.33 361.785 1351.48 349.303 1354.76 338.661C1369.91 288.409 1419.08 276.963 1458.95 287.644L1460.3 288.006C1510.88 302.257 1556.52 351.682 1541.06 427.706C1544.71 400.177 1539.8 374.692 1526.33 353.254C1512.35 330.678 1489.61 313.724 1463.55 306.499L1462.42 306.197C1424.81 296.119 1378.48 306.878 1364.21 354.713C1361.17 364.479 1357.32 375.883 1353.25 387.944L1353.23 388.002L1353.1 388.407C1352.57 389.952 1352.05 391.508 1351.52 393.073C1332.43 449.027 1306.3 525.791 1306.79 597.855C1307.09 637.281 1315.34 671.355 1331.55 699.116C1350.41 731.445 1380.58 756.669 1421.13 773.809C1421.17 773.82 1421.33 773.872 1421.6 773.96C1430.37 776.793 1556.05 817.393 1612.34 761.075C1640.35 733.097 1617.45 692.442 1588.29 640.936L1588 640.432C1558.76 588.528 1522.92 524.931 1534.98 457.323C1525.95 527.648 1563.24 593.699 1593.76 647.761L1594.05 648.272L1594.11 648.39C1625 703.207 1649.49 746.677 1620.18 775.969ZM1437.77 776.577C1474.7 786.474 1566.07 804.922 1611.29 759.587C1638.39 732.329 1615.82 692.245 1586.92 641.535C1559.69 593.502 1526.75 535.081 1531.44 472.559C1524.02 531.903 1555.62 587.738 1581.52 633.486L1581.73 633.869L1581.88 634.125C1608.5 681.228 1629.69 718.713 1603.74 744.529C1551.88 796.288 1435.79 758.861 1428.15 756.398L1428.14 756.396C1427.92 756.325 1427.79 756.283 1427.76 756.274C1358.35 727.054 1323.01 672.446 1322.68 594.389C1322.33 528.481 1346.07 458.273 1363.49 406.77L1363.75 406.004C1368.15 393.183 1372.14 380.977 1375.37 370.737C1388.38 326.671 1431.08 316.869 1465.54 326.102L1466.66 326.403C1490.7 333.086 1511.59 348.821 1524.42 369.398C1535.96 387.859 1540.68 409.467 1538.62 432.92C1550.36 365.02 1509.12 320.855 1463.13 308.075C1426.09 297.668 1379.88 307.976 1365.63 354.85C1362.16 365.99 1357.86 379.322 1352.93 393.21L1352.35 394.952C1333.53 450.81 1307.95 526.727 1308.32 597.541C1308.86 682.898 1345.91 740.136 1421.61 772.007C1421.75 772.045 1422.13 772.157 1422.73 772.334L1422.73 772.336L1422.73 772.336L1422.74 772.336L1422.74 772.337C1424.99 773.002 1430.31 774.578 1437.77 776.577ZM1602.63 743.266C1560.81 784.925 1476.99 768.018 1442.99 758.906C1435.82 756.987 1430.84 755.33 1429 754.718L1429 754.718C1428.58 754.58 1428.32 754.495 1428.24 754.472C1358.66 724.966 1324.65 672.643 1324.22 594.076C1323.74 528.616 1347.48 458.411 1364.9 406.909L1365.16 406.141C1365.51 405.109 1365.87 404.082 1366.22 403.059L1366.22 403.059L1366.22 403.058C1370.23 391.376 1374.02 380.345 1376.78 370.874C1389.66 328.219 1431.33 318.626 1465.12 327.678L1466.24 327.98C1508.95 340.112 1547.37 381.283 1535.48 444.572C1540.88 391.46 1507.03 356.723 1469.78 346.308L1468.88 346.067C1437.35 337.618 1398.23 346.688 1385.79 386.806C1383.92 393.161 1381.53 400.257 1378.97 407.82L1378.97 407.822C1377.75 411.444 1376.49 415.173 1375.24 418.98C1359.29 465.882 1337.61 530.56 1337.84 590.968C1338.28 662.296 1370.53 712.214 1433.88 738.844C1433.91 738.853 1434.04 738.895 1434.27 738.967C1441.56 741.315 1547.3 775.359 1594.63 728.087C1618.28 704.549 1599.06 670.486 1574.75 627.378L1574.61 627.132L1574.03 626.099C1549.98 583.23 1520.56 530.768 1529.56 475.238C1523.55 534.094 1554.65 589.375 1580.31 634.693L1580.45 634.951C1606.74 681.481 1627.6 718.394 1602.63 743.266ZM1448.04 740.949C1478.89 749.216 1555.61 764.703 1593.58 726.598C1616.25 704.005 1597.37 670.515 1573.38 627.978L1573.24 627.731C1550.58 587.626 1523.28 539.233 1526.57 487.465C1520.69 536.296 1546.63 582.359 1568.05 620.065C1589.36 657.639 1607.71 690.073 1586.25 711.6C1543.32 754.514 1447.28 723.483 1441.04 721.469L1440.85 721.407C1440.82 721.396 1440.79 721.386 1440.77 721.38C1440.75 721.375 1440.74 721.371 1440.73 721.37C1383.51 697.105 1354.29 652.102 1353.74 587.503C1353.41 532.861 1373.17 474.429 1387.75 431.746C1388.13 430.599 1388.52 429.459 1388.9 428.328C1392.04 418.984 1394.98 410.245 1397.23 402.665C1408.07 366.706 1443.39 358.307 1471.99 365.971L1472.89 366.213C1506.05 375.521 1536.19 405.847 1532.8 452.298C1542.55 395.61 1507.86 358.655 1469.36 347.885C1438.4 339.106 1399.62 347.786 1387.88 387.124C1386.01 393.479 1383.61 400.575 1381.06 408.138L1381.06 408.14C1379.84 411.762 1378.58 415.491 1377.32 419.298C1361.38 466.199 1339.54 530.592 1339.83 590.775C1340.2 662.328 1371.3 710.247 1434.65 736.877C1435.26 737.284 1440.16 738.837 1448.04 740.949ZM1584.63 710.442C1550.34 744.705 1481.18 730.76 1453.26 723.277C1447.74 721.799 1443.84 720.613 1442.01 720.057L1442.01 720.056C1441.45 719.886 1441.09 719.775 1440.93 719.733C1310.36 664.711 1359.47 519.276 1388.98 432.559C1389.36 431.409 1389.75 430.267 1390.13 429.134L1390.13 429.13C1393.27 419.79 1396.21 411.055 1398.46 403.477C1409.06 368.42 1443.52 360.515 1471.23 367.938L1472.13 368.179C1505.89 377.67 1536.52 409.471 1530.03 458.384C1530.68 419.47 1504.65 394.199 1476.24 386.177L1475.33 385.936C1449.66 379.056 1417.75 386.438 1408.32 418.914C1407.61 421.067 1406.87 423.329 1406.09 425.685L1406.09 425.692L1406.07 425.734L1406.07 425.735C1404.14 431.615 1402.02 438.072 1399.69 444.842C1386.77 483.142 1369.15 535.388 1369.35 584.202C1369.56 641.952 1395.69 682.265 1447.08 704C1447.1 704.007 1447.21 704.04 1447.38 704.098L1447.39 704.099L1447.39 704.099C1453.28 705.999 1538.96 733.644 1577.36 695.218C1596.75 676.032 1580.22 646.739 1561.21 613.163C1543.41 581.767 1521.97 543.835 1523.57 503.272C1524.03 546.662 1546.81 587.083 1565.84 620.835L1566.05 621.219C1587.86 659.65 1605.05 690.085 1584.63 710.442ZM1458.53 705.38C1483.53 712.079 1545.37 724.543 1576.03 693.895C1594.21 675.593 1579 648.585 1559.5 614.152L1559 613.262C1540.77 580.842 1518.85 541.85 1521.65 500.048C1515.88 539.219 1536.8 576.197 1553.88 606.395L1554.03 606.651C1570.89 636.515 1585.27 662.095 1568.36 679.287C1534.48 713.229 1459.14 688.959 1453.61 687.18C1453.43 687.122 1453.33 687.088 1453.3 687.08C1407.98 667.937 1384.94 632.313 1384.61 581.291C1384.32 538.421 1399.95 492.397 1411.37 458.802L1411.37 458.801L1411.51 458.389C1412.65 454.868 1413.8 451.474 1414.91 448.228L1414.91 448.227C1416.45 443.697 1417.89 439.454 1419.07 435.554C1427.59 406.456 1455.64 399.971 1478.39 406.066L1479.06 406.247C1504.95 413.602 1528.52 437.059 1526.45 473.047C1534.77 426.845 1506.8 396.757 1475.53 387.919L1474.85 387.738C1450.08 381.1 1419.48 388.107 1410.13 419.397C1407.95 426.649 1404.98 435.227 1401.93 444.062L1401.49 445.325C1375.13 522.989 1331.2 652.675 1447.84 702.033C1448.01 702.319 1452 703.63 1458.53 705.38ZM1567.08 677.739C1540.1 704.546 1485.82 693.623 1463.75 687.709C1461.47 687.096 1459.53 686.537 1458.01 686.098C1455.78 685.457 1454.46 685.076 1454.29 685.174C1351.58 641.979 1390.23 527.8 1413.39 459.387L1413.47 459.157C1416.44 450.78 1419.06 442.793 1421.1 436.097C1429.54 408.186 1456.74 402.195 1478.75 408.334C1506.36 415.964 1531.04 442.739 1523.43 483.716C1524.95 452.647 1504.72 432.399 1482.18 426.151L1481.5 425.97C1461.91 420.72 1437.5 426.248 1430.06 451.292C1428.62 455.943 1426.88 461.136 1424.99 466.785L1424.99 466.786C1424.52 468.175 1424.05 469.592 1423.57 471.035C1413.57 500.221 1400.23 540.096 1400.34 577.54C1400.56 621.773 1420.73 652.767 1459.99 669.32C1462.86 670.33 1529.5 692.773 1559.82 662.515C1574.57 647.75 1562.17 625.708 1547.72 600.035L1547.47 599.584C1532.82 573.915 1514.95 542.385 1519.14 509.042C1517.39 545.457 1536.62 579.566 1552.54 607.701C1569.56 637.85 1582.96 661.717 1567.08 677.739ZM1468.81 669.751C1487.72 674.82 1534.9 684.324 1558.03 661.071C1571.83 647.39 1560.02 626.604 1545.25 600.678L1545.11 600.429C1532.15 577.466 1516.74 550.144 1516.19 520.767C1514.67 547.121 1528.67 572.054 1540.19 592.58L1540.19 592.581L1540.34 592.846C1552.81 614.775 1563.47 633.562 1550.64 646.298C1526.26 670.668 1474.27 654.644 1466.85 652.357L1466.85 652.356C1466.45 652.232 1466.18 652.149 1466.05 652.115C1389.28 619.716 1418.02 534.966 1435.22 484.296C1436.93 479.351 1438.42 474.656 1439.71 470.586L1439.71 470.579L1439.71 470.576L1439.72 470.547C1439.92 469.923 1440.12 469.313 1440.3 468.72C1440.42 468.356 1440.53 467.997 1440.65 467.646C1447.34 446.266 1467.95 441.409 1484.84 445.935L1485.29 446.056C1503.45 451.119 1520 467.082 1520.32 491.381C1525.99 457.04 1504.78 434.605 1481.41 428.118L1480.74 427.937C1462.04 422.928 1438.88 428.308 1431.58 451.939C1430.05 456.866 1428.15 462.562 1426.11 468.65L1426.11 468.651L1426.09 468.699C1425.74 469.757 1425.38 470.828 1425.02 471.908L1424.94 472.139C1404.99 531.273 1371.69 629.988 1460.25 667.458L1468.81 669.751ZM1549.37 644.749C1529.64 664.326 1490.01 656.364 1474.02 652.079C1470.74 651.2 1468.39 650.411 1467.49 650.11L1467.49 650.11L1467.48 650.108C1467.39 650.078 1467.32 650.053 1467.26 650.033C1467.22 650.022 1467.19 650.012 1467.17 650.004C1467.14 649.994 1467.12 649.987 1467.1 649.983C1392.3 618.353 1420.52 534.668 1437.47 484.899C1439.26 479.718 1440.81 474.81 1442.18 470.476L1442.44 469.659L1442.69 468.871L1442.82 468.472L1442.96 468.024C1449.07 447.935 1468.82 443.573 1484.75 448.083C1504.83 453.692 1522.73 473.131 1517.2 502.781C1516.56 483.616 1503.55 470.213 1488.41 465.96L1487.96 465.84C1474.22 462.159 1457.18 466.284 1451.8 483.67C1451.13 486.172 1450.22 488.886 1449.24 491.801L1449.24 491.802L1449.24 491.803C1448.63 493.61 1448 495.494 1447.38 497.452L1447.38 497.461C1433.33 539.08 1409.95 608.358 1472.84 634.866C1472.91 634.884 1473.03 634.919 1473.19 634.97C1473.28 634.997 1473.38 635.029 1473.5 635.065C1479.58 636.94 1522.19 650.082 1542.21 630.037C1552.73 619.581 1543.89 603.935 1533.73 586.005C1524.17 569.162 1512.54 548.474 1513.98 526.728C1514.61 551.501 1527.65 574.551 1538.63 593.836L1538.85 594.232C1551.16 616.196 1560.8 633.416 1549.37 644.749ZM1540.48 628.368C1524.66 644.164 1492.36 637.683 1479.3 634.183L1479.3 634.182C1475.92 633.277 1473.9 632.734 1473.73 632.449C1412.8 606.708 1435.83 538.772 1449.64 498.056C1451.25 492.936 1452.74 488.267 1454.05 484.273C1458.85 468.178 1474.52 464.652 1487.36 468.092L1487.81 468.213C1504.86 473.024 1520.07 490.134 1513.3 516.32C1506.6 542.182 1520.06 566.268 1531.03 585.913C1531.27 586.33 1531.5 586.746 1531.73 587.159L1532.32 588.221C1541.98 605.584 1549.56 619.208 1540.48 628.368Z" fill="url(#paint1_linear_5302_2)"/>
<defs>
<linearGradient id="paint0_linear_5302_2" x1="-388.044" y1="455.59" x2="313.817" y2="643.653" gradientUnits="userSpaceOnUse">
<stop stop-color="#FFD110" stop-opacity="0"/>
<stop offset="0.286458" stop-color="#109BFF"/>
<stop offset="0.614583" stop-color="#FF0469"/>
<stop offset="1" stop-color="#04DA00" stop-opacity="0"/>
</linearGradient>
<linearGradient id="paint1_linear_5302_2" x1="1827.56" y1="643.41" x2="1125.7" y2="455.347" gradientUnits="userSpaceOnUse">
<stop stop-color="#04DA00" stop-opacity="0"/>
<stop offset="0.3125" stop-color="#FF0469"/>
<stop offset="0.703125" stop-color="#109BFF"/>
<stop offset="1" stop-color="#FFD110" stop-opacity="0"/>
</linearGradient>
</defs>
</svg>
