<svg width="541" height="814" viewBox="0 0 541 814" fill="none" xmlns="http://www.w3.org/2000/svg">
<path opacity="0.5" fill-rule="evenodd" clip-rule="evenodd" d="M1410.57 656.356L1408.74 659.511C1389.58 692.047 1364.78 720.561 1335.23 744.808C1304.29 770.162 1269.65 788.789 1232.37 800.159C1147.88 826.335 1056.27 813.603 967.216 762.954C780.976 657.334 562.572 714.48 386.433 760.566L384.841 760.983C305.528 782.12 230.43 801.867 170.336 803.505C103.587 805.507 60.486 785.595 34.6112 740.442C7.69258 693.157 -3.38659 635.512 2.06111 568.286C6.04992 514.751 20.5754 455.443 44.9752 391.51C84.3413 288.476 137.528 207.503 143.554 198.329C143.887 197.822 144.076 197.535 144.111 197.475C184.413 145.4 229.009 102.306 276.336 69.5856C320.586 38.9126 368.608 16.1541 419.004 2.41588L419.005 2.41556C422.155 1.55705 425.304 0.698574 428.288 0.126861C327.754 25.8407 231.177 86.73 144.964 197.967C144.916 198.049 144.687 198.401 144.289 199.011C137.728 209.086 85.273 289.628 45.9939 391.716C7.50227 491.877 -25.3697 633.529 35.5111 740.197C60.9828 784.734 103.918 804.934 170.383 802.767C230.642 800.842 305.575 781.382 384.722 760.532C473.32 737.105 573.735 710.94 673.382 703.837C782.008 696.22 874.113 713.087 954.42 755.21C775.625 655.096 566.164 710.103 397.473 754.403L396.893 754.556L392.867 755.603L389.928 756.367L389.927 756.367L389.926 756.367C316.226 775.537 246.732 793.612 190.607 795.321C126.392 796.874 84.878 777.496 60.047 734.476C34.3378 689.036 23.568 633.482 28.8283 569.207C32.8422 517.599 46.7772 460.627 70.1365 399.153C108.361 299.749 159.745 221.164 164.842 213.368C165.089 212.991 165.227 212.779 165.25 212.74C203.944 162.796 246.812 121.381 292.292 89.8892C334.695 60.4447 381.036 38.6279 429.348 25.2162C446.447 20.5551 463.783 16.7958 481.642 14.1029C369.542 31.6098 261.31 90.3592 166.103 213.232C166.056 213.315 165.829 213.664 165.436 214.268C159.047 224.095 108.755 301.444 71.1552 399.359C34.2477 495.463 2.60357 631.704 61.1125 733.943C85.6592 776.799 126.889 796.014 190.535 794.132C248.425 792.37 320.373 773.481 396.371 753.489C481.369 731.044 577.9 705.696 673.829 699.123C773.533 692.292 858.85 706.614 933.434 743.066C764.001 654.394 567.356 706.12 408.661 747.963C335.363 767.219 266.564 785.249 210.877 787.136C149.149 788.978 109.342 770.584 85.8857 729.123C60.9359 685.652 50.7599 632.353 55.7141 570.578C59.5874 521.184 73.0975 466.261 95.5351 407.697C132.223 312.23 181.277 237.105 186.224 229.528L186.225 229.527C186.468 229.155 186.604 228.946 186.628 228.906C199.647 212.169 213.091 196.477 226.947 181.842C213.426 196.247 200.249 211.703 187.409 228.209C187.331 228.345 187.026 228.823 186.513 229.63C183.766 233.947 175.04 247.662 163.039 268.448C144.326 300.861 118.045 350.322 96.3162 407.001C60.9929 499.048 30.7423 629.592 86.7138 727.689C110.335 768.863 149.859 787.093 210.852 785.209C264.629 783.659 331.017 766.427 401.589 748.109L401.645 748.094C403.916 747.505 406.191 746.914 408.47 746.323L413.386 745.041C493.842 724.054 584.192 700.486 674.441 694.122C771.302 687.401 853.502 701.677 925.758 737.33C762.931 650.359 573.228 700.182 420.476 740.634C418.178 741.228 415.884 741.822 413.595 742.415C346.156 759.881 282.484 776.372 231.076 777.763C172.001 779.607 134.065 761.911 111.25 721.967C87.5093 680.342 77.6428 629.133 82.2907 569.86C86.0235 522.678 98.6587 469.928 120.506 413.7C155.763 321.755 203.488 249.334 207.58 243.124L207.731 242.895C207.766 242.842 207.794 242.799 207.816 242.766C207.841 242.727 207.856 242.703 207.861 242.695C276.87 154.033 358.526 96.0028 450.201 70.5287C529.112 48.776 618.034 50.3968 714.601 75.5535C891.364 121.387 1062.3 235.758 1187.29 319.392C1191.25 322.022 1195.19 324.633 1199.09 327.22L1199.2 327.293L1199.2 327.295C1225.98 345.067 1251.03 361.694 1272.91 375.328C1320.54 405.123 1349.9 448.843 1357.3 501.689C1363.73 549.001 1352.49 600.645 1325.33 647.687L1323.68 650.555C1288.54 709.438 1232.01 754.82 1167.97 774.451C1099.81 795.457 1026.59 788.076 954.646 752.781C1130.27 846.793 1282.93 767.81 1351.25 652.706L1352.91 649.838C1391.56 582.881 1403.87 495.287 1360.55 426.821C1374.46 448.406 1383.44 472.769 1387.07 499.374C1394.19 547.465 1382.08 601.281 1353.59 650.617L1351.77 653.773C1314.98 715.524 1255.82 762.83 1189.37 783.362C1117.62 805.587 1040.47 797.207 964.903 759.885C1148.47 858.838 1307.96 776.325 1379.34 655.924L1381 653.056C1434.49 560.407 1439.56 429.476 1324.56 358.106C1300.14 342.982 1272.07 324.232 1242.2 304.275L1242.19 304.269C1238.59 301.862 1234.96 299.438 1231.31 297C1101.35 209.989 930.255 95.8576 752.169 40.9497C930.782 95.6553 1101.96 209.888 1229.41 294.942L1229.41 294.942L1231.64 296.427C1234.38 298.255 1237.1 300.075 1239.81 301.887L1242.52 303.695L1242.53 303.701C1272.4 323.658 1300.47 342.408 1324.89 357.533C1377.07 389.955 1408.85 437.366 1416.54 494.968C1424.2 546.052 1411.95 602.082 1382.3 653.426L1380.48 656.581C1342.2 720.914 1280.41 770.145 1211.1 791.7C1133.6 815.595 1049.79 805.526 967.942 762.604C1162.54 872.798 1332.49 786.329 1407.89 659.019L1409.71 655.864C1465.36 559.486 1470.47 423.226 1350.8 348.778C1322.29 331.171 1288.92 308.847 1253.73 285.087L1252.38 284.188C1120.91 196.444 949.682 82.1609 770.537 23.3262C950.708 82.1007 1122.68 196.622 1251.96 282.716L1254.23 284.226C1259.07 287.445 1263.88 290.641 1268.65 293.808L1268.65 293.809C1298.64 313.738 1326.84 332.478 1351.29 347.918C1405.47 381.489 1438.29 431.033 1446.86 491.054C1454.38 544.351 1441.37 603.004 1410.57 656.356ZM713.244 29.9501C726.247 33.2817 739.227 36.9594 752.169 40.9497C740.423 37.3521 728.644 34.0118 716.844 30.9543C715.647 30.6145 714.447 30.2796 713.244 29.9501ZM689.267 24.2117C697.267 25.9889 705.26 27.9043 713.244 29.9501C705.287 27.7686 697.232 25.82 689.267 24.2117ZM1298.93 367.024C1326.15 383.963 1346.34 404.363 1360.55 426.821C1345.59 403.602 1324.92 383.597 1299.05 367.475C1272.82 351.182 1242.13 330.786 1209.62 308.955C1079.11 221.75 900.375 102.495 715.794 54.4424C614.868 28.2988 522.274 26.4702 439.764 49.2043C361.1 70.846 289.784 115.472 226.947 181.842C355.891 44.4605 516.197 2.51461 715.96 54.1556C900.257 102.044 1078.99 221.299 1209.5 308.504C1242.01 330.335 1272.7 350.731 1298.93 367.024ZM121.643 414.357C142.331 360.137 167.453 312.684 185.339 281.705C194.082 266.561 201.169 255.375 205.076 249.209C207.237 245.797 208.425 243.922 208.383 243.761C338.07 76.9262 503.368 22.4396 714.058 77.1519C890.37 123.108 1061.47 237.192 1186.46 320.826L1189.39 322.77L1190.88 323.764L1195.48 326.816L1195.49 326.822C1223.16 345.202 1249.43 362.652 1272.08 376.762C1377.58 442.263 1373.05 562.413 1324.03 647.317L1322.54 649.899C1258 758.507 1115.63 833.293 950.812 749.753C1016.78 779.985 1083.83 785.728 1146.37 766.565C1207.42 747.505 1261.89 704.377 1295.25 647.911L1296.91 645.043C1322.91 600.009 1333.72 550.414 1327.1 506.054C1320.29 455.463 1292.43 413.752 1246.62 385.393C1225.85 372.403 1202.15 356.575 1176.76 339.62C1172.87 337.023 1168.95 334.4 1164.98 331.756L1163.76 330.939L1163.76 330.939C1044.52 251.396 881.47 142.629 713.268 98.8778C702.256 96.0415 691.344 93.52 680.536 91.3141C514.574 56.5731 379.192 96.3689 268.991 212.174C255.188 226.528 241.837 242.038 228.954 258.697C228.93 258.739 228.79 258.952 228.543 259.33C223.763 266.628 178.725 335.396 145.455 422.367C124.648 476.136 112.485 526.099 109.011 571.518C104.385 628.127 113.824 676.793 136.639 716.738C158.411 754.549 194.759 771.711 251.181 769.865C301.294 768.328 363.175 752.126 428.946 734.905L428.947 734.905L432.244 734.042C574.855 696.326 750.747 649.983 903.795 725.336C837.574 695.169 762.244 683.343 674.887 689.408C586.799 695.536 498.367 718.675 420.12 739.281L416.907 740.124C347.962 758.208 283.344 775.158 231.004 776.574C172.379 778.295 134.728 760.764 112.315 721.435C58.7157 627.767 87.7384 502.634 121.643 414.357ZM229.736 258.001C242.452 241.59 255.533 226.315 268.991 212.174C325.725 153.17 390.075 113.7 460.783 94.2303C527.087 75.9428 600.969 75.0738 680.536 91.3141C691.078 93.5208 701.744 96.0284 712.534 98.8362C880.452 142.424 1043.5 251.19 1162.74 330.733L1163.96 331.551C1193.63 351.741 1221.93 370.372 1245.89 385.352C1346.72 447.775 1342.23 562.595 1295.37 643.771L1293.88 646.352C1232.59 749.961 1096.8 821.271 939.649 742.13C1002.31 770.649 1066.04 776.277 1125.25 757.819C1183.44 739.782 1235.29 698.579 1267.15 644.695L1268.65 642.113C1293.49 599.087 1303.54 552.115 1297.9 508.699C1291.23 460.485 1264.58 420.62 1221.05 393.575C1197.94 379.087 1171.35 361.441 1142.94 342.359L1142.93 342.352L1142.93 342.351C1029.1 266.309 873.149 162.121 712.194 120.441C624.014 97.8314 543.05 96.2162 471.339 116.006C387.479 139.108 313.091 191.774 250.307 272.938C250.282 272.981 250.144 273.192 249.901 273.564C245.279 280.631 202.564 345.945 170.828 428.986C151.228 480.009 139.489 527.923 136.157 571.128C132.002 624.95 140.847 671.361 162.453 709.46C183.134 745.877 217.942 761.766 271.829 760.37C319.588 758.993 378.349 743.639 440.985 727.273L444.224 726.426L444.604 726.327L444.605 726.327C580.475 690.679 747.995 646.728 893.699 718.336C830.568 689.737 758.576 678.61 675.216 684.243C591.619 689.971 507.565 712.068 433.237 731.609L431.935 731.951C365.22 749.654 301.987 765.925 251.321 767.651C195.35 769.374 159.404 752.828 137.917 715.181C86.8549 625.655 114.484 506.219 146.805 421.999C166.736 370.402 190.699 324.957 207.757 295.412C213.921 284.737 219.185 276.067 223.015 269.759C227.212 262.848 229.687 258.772 229.736 258.001ZM230.056 308.67C213.661 337.067 191.023 380.218 171.966 429.643C141.064 510.092 114.828 623.831 163.637 709.379C183.915 745.181 218.439 760.906 271.592 759.468C319.889 757.903 380.138 742.204 443.702 725.36L445.065 725.003C515.785 706.445 596.21 685.342 675.781 679.981C763.092 673.998 836.79 687.489 901.314 721.079C901.274 721.057 901.234 721.034 901.194 721.012C758.634 640.235 591.055 684.225 456.442 719.712L453.182 720.562C393.694 736.072 337.65 750.683 292.265 751.899C241.031 753.297 208.095 738.106 188.173 703.657C141.333 621.923 166.506 513.308 196.155 436.342C226.439 356.877 267.789 294.3 271.612 288.513C271.786 288.251 271.882 288.105 271.896 288.08C331.628 210.89 402.323 160.682 481.967 138.971C550.363 120.326 627.371 121.57 711.026 143.479C864.002 183.228 1012.33 282.252 1120.63 354.724C1124.7 357.418 1128.74 360.091 1132.73 362.734C1155.34 377.718 1176.49 391.737 1194.93 403.354C1236.47 429.25 1261.63 467.106 1268.15 512.941C1273.53 553.529 1263.9 598.451 1240.38 639.183L1238.89 641.764C1208.52 693.067 1159.3 732.345 1103.98 749.359C1042.79 768.327 976.697 760.485 912.136 726.95C912.241 727.009 912.345 727.068 912.45 727.128C1068.66 815.785 1205.14 746.192 1265.85 644.325L1267.34 641.743C1312.06 564.296 1316.34 455.092 1220.34 395.46C1197.52 381.137 1170.64 363.326 1142.23 344.244L1142.22 344.238C1028.4 268.196 872.44 164.007 711.934 122.203C519.938 72.5464 369.251 122.083 251.279 273.881C251.232 273.962 251.02 274.29 250.656 274.853L250.655 274.855C248.436 278.287 240.58 290.441 230.056 308.67ZM197.127 437.286C215.143 390.32 236.907 349.341 252.474 322.378C259.477 310.249 265.196 301.041 268.687 295.422L268.687 295.421L268.688 295.42C271.057 291.605 272.399 289.445 272.418 289.146C384.617 144.723 527.773 97.7225 710.198 144.913C863.174 184.662 1011.22 283.522 1119.52 355.993C1121.23 357.128 1122.94 358.258 1124.64 359.384C1126.82 360.826 1128.98 362.26 1131.13 363.686L1131.6 363.995C1154.22 378.982 1175.38 393.004 1193.81 404.624C1284.98 461.465 1281.19 565.218 1238.63 638.935L1237.31 641.23C1180.43 737.144 1053.24 802.524 907.093 723.143C966.208 751.93 1026.57 757.94 1082.41 740.736C1134.59 724.58 1181.46 687.391 1210.35 638.67L1211.67 636.375C1234.03 597.652 1243.52 554.943 1238.73 516.61C1232.52 472.866 1208.4 437.143 1169.14 412.56C1150.06 400.838 1127.92 386.053 1104.65 370.513L1104.37 370.328L1101.6 368.477L1098.66 366.515L1096.54 365.103C994.066 296.773 854.186 203.503 710.023 166.23C630.561 145.595 557.556 143.985 492.595 161.935C417 182.542 349.715 230.13 293.036 303.345C293.021 303.37 292.93 303.511 292.764 303.763C289.145 309.295 250.35 368.575 221.316 443.985C193.417 516.606 169.471 619.812 213.774 697.404C232.487 730.007 263.835 744.664 312.417 743.264C354.526 742.231 406.263 728.763 461.277 714.443L461.278 714.443C463.543 713.853 465.815 713.262 468.091 712.67C593.428 679.692 749.359 638.841 883.073 710.347C823.599 681.36 755.589 669.829 676.228 675.267C599.983 680.583 523.25 700.534 455.636 718.482C330.472 751.393 231.691 777.354 189.239 703.125C142.517 621.842 167.809 513.677 197.127 437.286ZM274.772 335.635C260.033 361.164 239.429 400.135 222.454 444.642C194.72 516.976 170.656 619.731 214.84 696.872C255.039 767.123 348.871 742.511 467.45 711.153C584.896 680.247 729.016 642.477 856.909 696.073C734.025 639.264 593.508 675.997 479.575 705.914C425.01 720.305 373.594 733.838 332.403 734.915C286.475 736.318 256.548 722.482 238.926 691.273C196.995 618.11 219.713 520.315 246.194 451.464C274.802 376.957 313.726 318.733 314.342 318.323C367.968 249.082 431.394 204.238 503.105 184.448C564.467 167.479 633.8 168.881 708.618 188.366C845.581 223.999 978.02 312.456 1075.07 377.274L1076.12 377.977C1100.15 394.145 1123.21 409.371 1142.78 421.437C1180.22 444.584 1202.68 478.584 1208.46 519.786C1213.35 556.643 1204.61 596.729 1183.41 633.445L1182.09 635.739C1154.69 681.879 1110.61 716.856 1060.69 732.399C1011.66 747.596 959.144 743.671 907.396 721.486C1041.14 787.287 1156.49 726.15 1208.93 637.849L1210.25 635.554C1250.49 565.852 1254.24 467.429 1167.74 413.666C1149.32 402.35 1128.27 388.308 1105.74 373.271C1102.93 371.402 1100.11 369.517 1097.26 367.62L1095.02 366.122C992.555 297.803 853.012 204.757 708.911 167.5C535.773 122.612 399.982 167.363 293.723 304.125C293.704 304.424 292.407 306.505 290.131 310.157C286.797 315.503 281.365 324.216 274.772 335.635ZM247.781 451.998C264.001 410.114 283.445 373.151 297.356 349.057C307.79 330.986 314.983 319.841 315.433 319.718C416.082 190.044 544.342 147.829 707.909 190.251C844.588 225.72 977.026 314.177 1074.07 378.995L1075.12 379.698C1081.97 384.194 1088.72 388.66 1095.31 393.027C1112.02 404.086 1127.75 414.507 1141.79 423.158C1223.61 473.843 1219.91 566.937 1181.83 632.911L1180.67 634.918C1131.06 718.317 1022.02 776.222 895.219 713.746C944.053 734.58 993.302 738.133 1039.41 723.939C1086.47 709.419 1128.09 676.08 1153.83 632.809L1154.99 630.801C1175.02 596.093 1183.34 558.057 1178.31 523.413C1172.96 484.752 1151.42 452.434 1116.26 430.6C1103.07 422.44 1088.33 412.601 1072.67 402.149L1072.67 402.148L1072.67 402.147L1072.65 402.134L1072.62 402.111L1072.59 402.092L1072.54 402.06L1072.49 402.026C1066.32 397.904 1060 393.686 1053.58 389.439C961.957 328.129 836.687 244.331 707.047 210.788C636.138 192.413 570.926 191.096 513.164 207.084C445.503 225.77 385.771 268.156 335.197 333.424C335.182 333.45 335.087 333.594 334.918 333.851C331.453 339.125 296.681 392.042 271.07 458.942C246.008 524.023 224.684 616.121 264.362 685.305C300.696 749.118 385.078 727.082 491.508 699.035C599.308 670.566 732.473 635.4 848.74 690.289C727.64 639.077 591.097 674.936 479.565 704.227L479.384 704.274C367.104 733.915 278.388 756.891 240.442 690.618C198.795 617.619 221.3 520.849 247.781 451.998ZM319.49 362.6C306.407 385.26 287.837 420.051 272.777 459.927C248.046 524.434 226.768 615.794 265.877 684.651C301.46 746.993 383.984 725.437 488.831 698.05L490.868 697.518C597.469 669.362 728.534 634.959 844.044 686.666C733.725 631.693 606.416 665.017 503.442 692.157L503.272 692.201C403.222 718.509 324.144 739.302 289.798 679.338C252.657 614.295 272.588 527.895 296.066 466.871C320.139 403.91 352.58 354.454 355.897 349.396C356.063 349.144 356.156 349.002 356.172 348.975C403.692 287.682 460.016 247.917 523.343 230.17C577.789 215.328 639.045 216.274 705.594 233.661C826.721 265.134 944.147 343.378 1030.03 400.602L1031.15 401.352C1032.39 402.176 1033.62 402.997 1034.85 403.816L1037.76 405.761C1056.67 418.38 1074.51 430.291 1090.02 439.928C1163.77 485.565 1160.67 569.068 1126.56 628.157L1125.4 630.164C1101.15 670.854 1062.16 702.269 1017.97 715.765C972.901 729.735 924.854 725.434 877.462 703.947C999.151 767.425 1104.61 712.19 1151.79 632.397L1152.95 630.389C1188.89 568.145 1192.09 480.503 1115.1 432.608C1096.66 421.199 1075.02 406.795 1052.42 391.447C960.798 330.137 835.528 246.339 706.172 212.96C551.892 172.841 430.997 212.806 336.288 334.818C336.335 334.999 335.247 336.726 333.288 339.836L333.287 339.836C330.349 344.501 325.451 352.274 319.49 362.6ZM298.104 467.283C312.408 430.03 329.818 397.247 342.073 376.021C349.723 362.771 355.554 353.597 357.422 350.659L357.423 350.658C357.779 350.098 357.99 349.765 358.043 349.673C446.813 235.322 560.627 197.771 705.335 235.424C825.948 267.002 943.029 345.016 1028.89 402.23L1030.16 403.073C1031.24 403.791 1032.31 404.508 1033.38 405.223L1036.77 407.482C1055.67 420.101 1073.52 432.012 1089.02 441.649C1161.35 486.466 1158.19 568.779 1124.57 627.007L1123.58 628.728C1079.98 702.36 984.097 753.511 872.587 699.149C914.722 716.681 957.21 719.419 996.857 707.018C1037.9 694.38 1074.54 665.055 1097.3 626.947L1098.3 625.226C1130.26 569.866 1133.14 491.98 1064.35 449.584C1048.19 439.488 1029.23 427.013 1009.3 413.593L1007.36 412.301L1007.36 412.301C927.079 358.696 817.804 285.732 704.876 256.576C642.52 240.462 585.101 239.438 534.255 253.299C474.859 269.49 422.229 306.798 377.761 364.117C377.311 364.239 344.918 412.466 321.393 474.227C299.499 531.193 280.796 612.184 315.849 672.961C347.944 728.952 421.63 709.624 515.389 685.031L515.541 684.991C609.94 660.169 725.788 629.715 827.319 676.489C720.503 632.536 600.862 664.066 502.848 689.902L501.622 690.224C402.972 716.156 325.065 736.635 291.645 678.11C254.907 613.682 274.791 528.019 298.104 467.283ZM317.246 671.856C264.974 580.484 333.569 442.63 365.034 388.13C371.785 376.438 376.866 368.546 378.574 365.893L378.575 365.892L378.575 365.891C378.799 365.543 378.965 365.285 379.069 365.121C379.125 365.033 379.163 364.971 379.183 364.938C462.628 257.839 568.627 222.66 704.048 258.01C817.416 287.519 927.406 360.956 1007.86 414.671L1007.9 414.699C1028.12 428.283 1047.07 440.758 1063.24 450.854C1130.73 492.88 1127.77 569.577 1096.31 624.077L1095.31 625.798C1055.62 692.711 969.428 739.756 868.619 695.222C904.705 708.175 940.983 709.514 974.964 698.968C1013.31 687.066 1047.32 659.665 1068.59 624.139L1069.59 622.417C1099.4 570.786 1102.4 497.942 1038.16 458.174C1027.1 451.51 1014.88 443.368 1001.85 434.681L1001.85 434.68L1001.82 434.665L1001.79 434.643C996.941 431.411 991.979 428.103 986.921 424.768C912.271 374.785 809.325 306.17 703.471 278.711C645.758 263.749 592.177 262.645 544.764 275.811C489.418 290.899 440.481 325.75 399.067 379.094C399.06 379.107 399.046 379.128 399.028 379.158C398.969 379.251 398.854 379.428 398.686 379.688C391.291 391.122 281.006 561.646 341.285 666.994C371.263 719.487 440.061 701.458 527.309 678.399C610.846 656.496 712.793 629.769 803.965 664.988C707.897 632.244 601.871 660.123 514.781 683.023L514.616 683.066C421.763 707.412 348.533 726.613 317.246 671.856ZM343.132 665.765C294.441 580.669 358.14 452.608 387.452 401.838C393.756 390.92 398.408 383.761 400.013 381.291C400.348 380.776 400.55 380.465 400.607 380.366C477.828 280.765 576.58 248.286 702.596 280.883C808.165 308.178 910.827 376.629 985.477 426.612C987.644 428.041 989.799 429.462 991.94 430.875L991.942 430.876C1008.25 441.635 1023.72 451.838 1037 460.182C1099.82 499.129 1097.19 570.662 1067.88 621.432L1066.89 623.153C1028.74 687.325 944.529 731.994 846.721 683.311C882.86 698.273 919.383 700.764 953.568 690.057C989.494 679.055 1021 654.03 1040.5 620.921L1041.33 619.486C1068.98 571.584 1071.49 504.192 1011.63 467.337C999.461 459.639 985.359 450.239 970.444 440.297C968.342 438.896 966.225 437.485 964.095 436.066C894.966 389.653 800.101 326.086 701.781 300.682C647.978 286.829 598.518 285.81 554.705 297.995C503.693 312.143 458.166 344.373 419.804 393.743C419.787 393.772 419.741 393.845 419.666 393.961C419.604 394.057 419.523 394.183 419.423 394.338C412.316 405.333 310.473 562.89 366.318 660.411C394.043 708.927 457.891 692.247 538.839 670.905L539.631 670.698C621.149 649.39 721.033 623.281 808.637 664.263C716.211 626.448 612.448 653.66 527.519 675.933L527.519 675.933L527.518 675.933L526.715 676.144L526.531 676.192C440.436 698.696 372.164 716.541 343.132 665.765ZM409.87 415.545C382.711 462.587 323.743 581.14 368.733 659.511C395.817 706.509 458.766 690.074 538.53 668.814C614.029 648.867 705.788 624.857 789.192 653.903C711.127 622.265 623.384 645.38 551.493 664.319L550.891 664.478L550.489 664.584C476.48 684.036 417.582 699.516 392.038 654.609C340.757 564.819 434.731 419.241 440.916 409.66L440.919 409.655L440.926 409.644C441.102 409.372 441.204 409.213 441.228 409.173C506.734 324.608 594.19 295.933 700.613 323.721C790.502 347.076 877.32 405.012 941.008 447.512L941.956 448.144C957.786 458.814 972.929 468.704 985.679 476.83C1040.87 510.607 1038.4 572.67 1013.07 616.556L1012.24 617.991C994.233 648.518 965.067 671.454 932.291 681.597C902.879 690.727 871.704 689.387 840.529 678.076C928.647 718.728 1004.07 678.186 1038.51 619.771C1066.4 572.771 1069.48 505.707 1010.92 469.222C997.037 460.44 980.472 449.729 963.385 437.951L961.231 436.517C892.132 390.517 798.219 327.997 701.641 302.896C585.197 272.765 493.525 302.83 422.079 395.057C421.974 395.238 421.68 395.719 421.215 396.477C419.478 399.313 415.359 406.038 409.87 415.545ZM394.169 653.545C352.925 581.161 406.997 472.402 432.004 429.089C437.27 419.968 441.373 413.735 442.888 411.433C443.231 410.912 443.441 410.592 443.503 410.486C509.459 325.799 593.315 298.105 700.472 325.934C789.795 348.963 876.61 406.896 940.297 449.396L941.246 450.029L942.255 450.709L943.309 451.42L945.05 452.594C959.473 462.321 973.093 471.507 984.97 478.715C1038.29 511.794 1035.92 572.381 1011.08 615.407L1010.25 616.841C977.905 670.984 907.6 708.754 825.814 669.556C896.147 696.173 955.992 662.353 983.977 615.06L984.639 613.912C1007.82 573.755 1009.96 516.857 959.937 485.297C951.975 480.442 943.201 474.593 933.849 468.36L933.842 468.355L933.839 468.353L933.837 468.351L933.833 468.349L933.826 468.344L933.794 468.323C929.329 465.346 924.732 462.282 920.029 459.197C862.063 420.375 782.009 367.272 699.657 345.733C602.356 320.535 522.43 346.673 462.699 423.863C462.675 423.905 462.572 424.064 462.398 424.334L462.391 424.345L462.387 424.351C456.49 433.494 370.957 566.104 417.805 648.068C441.098 689 494.604 674.986 562.32 657.249L562.706 657.148L564.327 656.728C631.617 639.282 713.965 617.932 786.259 650.353C708.328 620.828 621.52 643.457 550.298 662.223L549.893 662.329C476.785 681.536 418.789 696.772 394.169 653.545ZM454.587 442.51C431.899 481.807 382.392 581.346 420.22 647.168C442.589 686.421 495.194 672.65 562.008 655.159L562.396 655.057C625.403 638.509 701.413 618.596 770.69 641.827C706.371 616.118 634.039 635 574.758 650.721C515.693 666.339 464.728 679.749 443.359 642.552C400.818 568.195 478.654 447.787 483.706 439.972L483.706 439.972C483.775 439.865 483.83 439.78 483.871 439.715C483.918 439.642 483.947 439.597 483.957 439.58C538.199 369.929 610.309 346.162 698.489 368.772C773.023 388.092 845.279 436.311 898.009 471.726L899.532 472.738L902.012 474.388L902.238 474.538L902.24 474.54C913.799 482.229 924.61 489.42 934.101 495.241C979.055 523.108 977.41 574.554 956.378 610.982L955.716 612.13C930.758 654.202 878.299 684.534 816.3 663.095C889.885 696.959 953.059 662.776 981.986 613.91C1005.41 574.655 1007.95 518.372 958.731 488.043C950.767 483.186 941.99 477.336 932.635 471.1L932.633 471.099L932.632 471.098L932.628 471.095L932.621 471.09L932.609 471.082C928.137 468.101 923.533 465.033 918.823 461.942C860.857 423.121 781.253 369.896 699.186 348.521C601.6 323.158 524.824 348.438 465.092 425.628C464.311 426.324 460.383 432.47 454.587 442.51ZM445.537 640.75C411.575 581.367 456.185 491.622 476.72 456.054C480.777 449.028 483.836 444.114 485.27 441.811L485.271 441.81L485.271 441.81C485.71 441.104 485.997 440.644 486.113 440.442C609.411 281.392 789.282 401.303 896.446 473.118C897.051 473.52 897.654 473.921 898.255 474.321L900.581 475.868L900.681 475.935L900.683 475.936C912.24 483.623 923.049 490.814 932.538 496.634C976.355 523.844 974.354 573.937 953.984 609.218L953.322 610.365C927.888 653.213 873.23 683.692 809.021 657.085C861.778 672.064 905.838 645.53 927.289 609.485L927.952 608.338C946.831 575.638 948.598 529.234 907.862 504.568C905.177 502.798 902.351 500.946 899.408 499.018L899.407 499.017C892.116 494.24 884.108 488.994 875.751 483.351C828.378 451.793 763.752 408.745 697.203 391.358C618.475 370.764 553.895 391.994 505.263 454.557C505.243 454.591 505.157 454.723 505.011 454.95C500.243 462.333 430.855 569.769 468.961 636.298C487.911 669.803 533.926 657.743 586.692 643.842C636.049 630.797 695.656 615.133 750.311 632.007C691.044 616.931 627.549 633.539 574.531 647.406L573.927 647.564C513.512 663.55 465.696 676.101 445.537 640.75ZM499.138 469.761C480.756 501.6 440.876 581.838 471.257 634.947C489.448 666.484 531.864 655.405 585.979 641.136L587.377 640.772C638.28 627.52 699.502 611.581 755.393 630.543C704.187 608.457 646.078 623.752 598.624 636.242L598.222 636.348C551.306 648.654 511.14 659.12 493.993 629.715C460.318 571.008 521.279 476.526 525.748 469.6L525.749 469.598L525.757 469.585C525.857 469.43 525.928 469.32 525.967 469.258C525.983 469.233 525.993 469.216 525.999 469.206C568.857 414.018 625.907 395.324 695.512 413.329C754.004 428.435 810.891 466.514 852.415 494.308L852.924 494.649C857.292 497.49 861.483 500.295 865.491 502.978L865.499 502.983L865.504 502.986C871.103 506.734 876.347 510.244 881.22 513.28C917.69 535.484 916.132 576.272 899.406 605.242L898.909 606.103C879.303 638.922 838.626 662.744 790.383 646.882C850.222 675.004 901.558 647.554 925.18 607.885L925.677 607.024C943.893 575.472 945.686 530.995 906.537 506.863C897.468 501.261 886.887 494.091 875.99 486.706L875.989 486.705L875.988 486.705L875.988 486.704L875.987 486.704L874.426 485.646C778.424 421.423 618.08 314.315 507.656 456.321C507.206 456.444 503.941 461.443 499.138 469.761ZM496.574 628.528C470.059 581.858 505.042 511.415 521.272 483.305C522.95 480.397 524.431 477.941 525.59 476.018L525.591 476.016L525.592 476.013L525.593 476.013L525.593 476.013L525.593 476.012L525.593 476.012L525.593 476.012L525.594 476.012L525.595 476.01L525.595 476.009C527.291 473.195 528.298 471.525 528.227 471.257C625.1 346.107 766.277 440.387 850.865 496.877L851.15 497.067C861.458 504.166 871.364 510.65 879.73 515.862C914.613 537.531 912.698 576.966 896.184 604.912C875.564 640.001 829.964 664.138 776.98 638.895C818.728 652.201 853.793 631.8 870.649 603.174L871.145 602.313C885.553 577.358 887.068 541.899 855.716 522.651C849.916 518.996 843.491 514.733 836.501 510.096L836.495 510.092C835.649 509.53 834.794 508.963 833.931 508.391C833.041 507.801 832.142 507.205 831.236 506.605C795.19 482.352 745.826 449.645 694.795 436.245C634.476 420.542 584.792 436.987 547.708 484.8C545.271 488.365 490.02 571.584 519.998 624.078C534.64 649.641 569.252 640.617 609.565 630.107L610.274 629.922C650.653 619.134 700.205 606.046 744.061 623.834C695.119 608.275 641.551 622.29 597.343 633.929C549.978 646.357 512.512 656.087 496.574 628.528ZM543.855 496.727C529.944 520.821 499.526 582.044 522.626 622.153C536.145 646.021 568.827 637.353 609.608 626.478L609.999 626.376C646.069 616.929 688.988 605.689 729.2 615.555C693.87 603.95 654.73 614.115 622.506 622.484L622.089 622.592C587.607 631.75 558.075 639.559 545.481 617.373C521.325 575.136 562.404 509.683 568.266 500.341C568.586 499.832 568.801 499.49 568.895 499.327C641.453 405.831 746.224 475.881 808.859 517.781C814.962 521.916 820.808 525.658 825.874 528.901L825.875 528.902L825.878 528.903C827.145 529.714 828.363 530.494 829.524 531.241C856.161 548.15 855.14 578.156 842.719 599.669L842.388 600.243C828.768 623.292 800.9 640.196 767.687 631.849C812.356 652.038 850.767 631.085 868.255 601.409L868.752 600.549C882.497 576.741 883.752 543.045 854.272 524.495C848.128 520.622 841.076 515.95 833.539 510.955L833.538 510.954L833.538 510.954C832.209 510.073 830.865 509.183 829.508 508.285L829.222 508.094C756.08 459.361 633.981 378.008 550.148 485.827L543.855 496.727ZM548.062 616.186C528.709 582.065 554.231 530.636 565.989 510.27C568.401 506.092 570.349 503.148 571.092 502.025L571.093 502.025C571.268 501.76 571.376 501.597 571.407 501.543C642.191 410.463 745.706 479.406 807.203 520.649C813.589 524.976 819.692 528.872 825.083 532.312L825.096 532.321L825.101 532.324L825.139 532.349L825.243 532.415C826.238 533.05 827.209 533.67 828.152 534.274C853.248 549.91 851.871 578.564 839.829 598.765C824.751 624.255 791.645 641.759 753.313 623.451C779.653 629.502 802.726 616.524 814.127 597.311L814.458 596.738C824.56 579.24 825.253 554.399 803.569 540.732C800.411 538.909 797.053 536.679 793.447 534.284L793.447 534.283L793.445 534.283L793.444 534.282L793.443 534.281L793.441 534.28L793.438 534.278L793.437 534.277C791.203 532.793 788.873 531.246 786.436 529.693L786.424 529.685C734.95 495.377 649.265 438.267 589.869 514.877C589.793 515.008 589.622 515.281 589.368 515.685L589.359 515.699L589.355 515.706L589.354 515.708C584.548 523.362 550.869 577 570.751 611.691C581.091 629.9 605.674 623.44 633.857 615.999C660.338 608.991 692.827 600.528 721.911 610.375C687.935 602.281 651.711 611.81 621.377 619.886L620.755 620.047C586.285 628.965 559.26 635.957 548.062 616.186ZM573.663 609.931C558.01 582.536 578.801 540.614 588.407 523.977L588.407 523.976C590.891 519.674 592.381 517.093 592.831 516.97C650.457 442.771 734.444 498.91 784.78 532.561C791.154 536.624 796.96 540.359 801.913 543.601C822.056 555.995 821.054 578.746 811.614 595.096L811.283 595.669C798.413 617.305 769.477 631.96 736.326 613.203C703.585 594.674 665.8 604.404 634.98 612.339L633.965 612.601L633.025 612.842L632.088 613.082L631.361 613.268C604.136 620.227 582.775 625.687 573.663 609.931Z" fill="url(#paint0_linear_4_352)"/>
<defs>
<linearGradient id="paint0_linear_4_352" x1="446.838" y1="997.946" x2="962.933" y2="104.043" gradientUnits="userSpaceOnUse">
<stop stop-color="#FFD110" stop-opacity="0"/>
<stop offset="0.286458" stop-color="#109BFF"/>
<stop offset="0.614583" stop-color="#FF0469"/>
<stop offset="1" stop-color="#04DA00" stop-opacity="0"/>
</linearGradient>
</defs>
</svg>
